<mxfile host="Electron" agent="Mozilla/5.0 (X11; Linux x86_64) AppleWebKit/537.36 (KHTML, like Gecko) draw.io/28.1.2 Chrome/138.0.7204.243 Electron/37.4.0 Safari/537.36" version="28.1.2">
  <diagram name="Page-1" id="SmVhd2--IIDGf40uPSqY">
    <mxGraphModel dx="670" dy="830" grid="1" gridSize="10" guides="1" tooltips="1" connect="1" arrows="1" fold="1" page="1" pageScale="1" pageWidth="700" pageHeight="1000" math="0" shadow="0">
      <root>
        <mxCell id="0" />
        <mxCell id="1" parent="0" />
        <mxCell id="A2_iJ8km8CkKrE5Ka0Ly-1" value="S1" style="text;html=1;align=center;verticalAlign=middle;whiteSpace=wrap;rounded=0;" parent="1" vertex="1">
          <mxGeometry x="320" y="80" width="40" height="40" as="geometry" />
        </mxCell>
        <mxCell id="A2_iJ8km8CkKrE5Ka0Ly-3" value="S1" style="text;html=1;align=center;verticalAlign=middle;whiteSpace=wrap;rounded=0;" parent="1" vertex="1">
          <mxGeometry x="280" y="160" width="40" height="40" as="geometry" />
        </mxCell>
        <mxCell id="A2_iJ8km8CkKrE5Ka0Ly-5" value="a" style="text;html=1;align=center;verticalAlign=middle;whiteSpace=wrap;rounded=0;" parent="1" vertex="1">
          <mxGeometry x="200" y="160" width="40" height="40" as="geometry" />
        </mxCell>
        <mxCell id="A2_iJ8km8CkKrE5Ka0Ly-6" value="b" style="text;html=1;align=center;verticalAlign=middle;whiteSpace=wrap;rounded=0;" parent="1" vertex="1">
          <mxGeometry x="360" y="160" width="40" height="40" as="geometry" />
        </mxCell>
        <mxCell id="A2_iJ8km8CkKrE5Ka0Ly-7" value="A5" style="text;html=1;align=center;verticalAlign=middle;whiteSpace=wrap;rounded=0;" parent="1" vertex="1">
          <mxGeometry x="440" y="160" width="40" height="40" as="geometry" />
        </mxCell>
        <mxCell id="A2_iJ8km8CkKrE5Ka0Ly-8" value="S2" style="text;html=1;align=center;verticalAlign=middle;whiteSpace=wrap;rounded=0;" parent="1" vertex="1">
          <mxGeometry x="240" y="240" width="40" height="40" as="geometry" />
        </mxCell>
        <mxCell id="A2_iJ8km8CkKrE5Ka0Ly-9" value="a" style="text;html=1;align=center;verticalAlign=middle;whiteSpace=wrap;rounded=0;" parent="1" vertex="1">
          <mxGeometry x="160" y="240" width="40" height="40" as="geometry" />
        </mxCell>
        <mxCell id="A2_iJ8km8CkKrE5Ka0Ly-10" value="b" style="text;html=1;align=center;verticalAlign=middle;whiteSpace=wrap;rounded=0;" parent="1" vertex="1">
          <mxGeometry x="320" y="240" width="40" height="40" as="geometry" />
        </mxCell>
        <mxCell id="A2_iJ8km8CkKrE5Ka0Ly-11" value="A5" style="text;html=1;align=center;verticalAlign=middle;whiteSpace=wrap;rounded=0;" parent="1" vertex="1">
          <mxGeometry x="400" y="240" width="40" height="40" as="geometry" />
        </mxCell>
        <mxCell id="A2_iJ8km8CkKrE5Ka0Ly-12" value="a" style="text;html=1;align=center;verticalAlign=middle;whiteSpace=wrap;rounded=0;" parent="1" vertex="1">
          <mxGeometry x="200" y="320" width="40" height="40" as="geometry" />
        </mxCell>
        <mxCell id="A2_iJ8km8CkKrE5Ka0Ly-13" value="B7" style="text;html=1;align=center;verticalAlign=middle;whiteSpace=wrap;rounded=0;" parent="1" vertex="1">
          <mxGeometry x="280" y="320" width="40" height="40" as="geometry" />
        </mxCell>
        <mxCell id="A2_iJ8km8CkKrE5Ka0Ly-14" value="b" style="text;html=1;align=center;verticalAlign=middle;whiteSpace=wrap;rounded=0;" parent="1" vertex="1">
          <mxGeometry x="280" y="400" width="40" height="40" as="geometry" />
        </mxCell>
        <mxCell id="A2_iJ8km8CkKrE5Ka0Ly-18" value="" style="endArrow=classic;html=1;rounded=0;exitX=0.5;exitY=1;exitDx=0;exitDy=0;entryX=0.5;entryY=0;entryDx=0;entryDy=0;" parent="1" source="A2_iJ8km8CkKrE5Ka0Ly-1" target="A2_iJ8km8CkKrE5Ka0Ly-5" edge="1">
          <mxGeometry width="50" height="50" relative="1" as="geometry">
            <mxPoint x="320" y="310" as="sourcePoint" />
            <mxPoint x="370" y="260" as="targetPoint" />
          </mxGeometry>
        </mxCell>
        <mxCell id="A2_iJ8km8CkKrE5Ka0Ly-20" value="" style="endArrow=classic;html=1;rounded=0;exitX=0.5;exitY=1;exitDx=0;exitDy=0;entryX=0.5;entryY=0;entryDx=0;entryDy=0;" parent="1" source="A2_iJ8km8CkKrE5Ka0Ly-1" target="A2_iJ8km8CkKrE5Ka0Ly-3" edge="1">
          <mxGeometry width="50" height="50" relative="1" as="geometry">
            <mxPoint x="320" y="310" as="sourcePoint" />
            <mxPoint x="370" y="260" as="targetPoint" />
          </mxGeometry>
        </mxCell>
        <mxCell id="A2_iJ8km8CkKrE5Ka0Ly-21" value="" style="endArrow=classic;html=1;rounded=0;exitX=0.5;exitY=1;exitDx=0;exitDy=0;entryX=0.5;entryY=0;entryDx=0;entryDy=0;" parent="1" source="A2_iJ8km8CkKrE5Ka0Ly-1" target="A2_iJ8km8CkKrE5Ka0Ly-6" edge="1">
          <mxGeometry width="50" height="50" relative="1" as="geometry">
            <mxPoint x="320" y="310" as="sourcePoint" />
            <mxPoint x="370" y="260" as="targetPoint" />
          </mxGeometry>
        </mxCell>
        <mxCell id="A2_iJ8km8CkKrE5Ka0Ly-23" value="" style="endArrow=classic;html=1;rounded=0;exitX=0.5;exitY=1;exitDx=0;exitDy=0;entryX=0.5;entryY=0;entryDx=0;entryDy=0;" parent="1" source="A2_iJ8km8CkKrE5Ka0Ly-1" target="A2_iJ8km8CkKrE5Ka0Ly-7" edge="1">
          <mxGeometry width="50" height="50" relative="1" as="geometry">
            <mxPoint x="320" y="310" as="sourcePoint" />
            <mxPoint x="370" y="260" as="targetPoint" />
          </mxGeometry>
        </mxCell>
        <mxCell id="A2_iJ8km8CkKrE5Ka0Ly-24" value="" style="endArrow=classic;html=1;rounded=0;exitX=0.5;exitY=1;exitDx=0;exitDy=0;entryX=0.5;entryY=0;entryDx=0;entryDy=0;" parent="1" source="A2_iJ8km8CkKrE5Ka0Ly-3" target="A2_iJ8km8CkKrE5Ka0Ly-9" edge="1">
          <mxGeometry width="50" height="50" relative="1" as="geometry">
            <mxPoint x="320" y="310" as="sourcePoint" />
            <mxPoint x="370" y="260" as="targetPoint" />
          </mxGeometry>
        </mxCell>
        <mxCell id="A2_iJ8km8CkKrE5Ka0Ly-25" value="" style="endArrow=classic;html=1;rounded=0;exitX=0.5;exitY=1;exitDx=0;exitDy=0;entryX=0.5;entryY=0;entryDx=0;entryDy=0;" parent="1" source="A2_iJ8km8CkKrE5Ka0Ly-3" target="A2_iJ8km8CkKrE5Ka0Ly-8" edge="1">
          <mxGeometry width="50" height="50" relative="1" as="geometry">
            <mxPoint x="320" y="310" as="sourcePoint" />
            <mxPoint x="370" y="260" as="targetPoint" />
          </mxGeometry>
        </mxCell>
        <mxCell id="A2_iJ8km8CkKrE5Ka0Ly-26" value="" style="endArrow=classic;html=1;rounded=0;entryX=0.5;entryY=0;entryDx=0;entryDy=0;" parent="1" target="A2_iJ8km8CkKrE5Ka0Ly-10" edge="1">
          <mxGeometry width="50" height="50" relative="1" as="geometry">
            <mxPoint x="300" y="200" as="sourcePoint" />
            <mxPoint x="370" y="260" as="targetPoint" />
          </mxGeometry>
        </mxCell>
        <mxCell id="A2_iJ8km8CkKrE5Ka0Ly-27" value="" style="endArrow=classic;html=1;rounded=0;exitX=0.5;exitY=1;exitDx=0;exitDy=0;entryX=0.5;entryY=0;entryDx=0;entryDy=0;" parent="1" source="A2_iJ8km8CkKrE5Ka0Ly-3" target="A2_iJ8km8CkKrE5Ka0Ly-11" edge="1">
          <mxGeometry width="50" height="50" relative="1" as="geometry">
            <mxPoint x="320" y="310" as="sourcePoint" />
            <mxPoint x="370" y="260" as="targetPoint" />
          </mxGeometry>
        </mxCell>
        <mxCell id="A2_iJ8km8CkKrE5Ka0Ly-28" value="" style="endArrow=classic;html=1;rounded=0;exitX=0.5;exitY=1;exitDx=0;exitDy=0;entryX=0.5;entryY=0;entryDx=0;entryDy=0;" parent="1" source="A2_iJ8km8CkKrE5Ka0Ly-8" target="A2_iJ8km8CkKrE5Ka0Ly-12" edge="1">
          <mxGeometry width="50" height="50" relative="1" as="geometry">
            <mxPoint x="320" y="310" as="sourcePoint" />
            <mxPoint x="370" y="260" as="targetPoint" />
          </mxGeometry>
        </mxCell>
        <mxCell id="A2_iJ8km8CkKrE5Ka0Ly-29" value="" style="endArrow=classic;html=1;rounded=0;exitX=0.5;exitY=1;exitDx=0;exitDy=0;entryX=0.5;entryY=0;entryDx=0;entryDy=0;" parent="1" source="A2_iJ8km8CkKrE5Ka0Ly-8" target="A2_iJ8km8CkKrE5Ka0Ly-13" edge="1">
          <mxGeometry width="50" height="50" relative="1" as="geometry">
            <mxPoint x="320" y="310" as="sourcePoint" />
            <mxPoint x="370" y="260" as="targetPoint" />
          </mxGeometry>
        </mxCell>
        <mxCell id="A2_iJ8km8CkKrE5Ka0Ly-30" value="" style="endArrow=classic;html=1;rounded=0;exitX=0.5;exitY=1;exitDx=0;exitDy=0;entryX=0.5;entryY=0;entryDx=0;entryDy=0;" parent="1" source="A2_iJ8km8CkKrE5Ka0Ly-13" target="A2_iJ8km8CkKrE5Ka0Ly-14" edge="1">
          <mxGeometry width="50" height="50" relative="1" as="geometry">
            <mxPoint x="320" y="310" as="sourcePoint" />
            <mxPoint x="370" y="260" as="targetPoint" />
          </mxGeometry>
        </mxCell>
        <mxCell id="A2_iJ8km8CkKrE5Ka0Ly-31" value="a" style="text;html=1;align=center;verticalAlign=middle;whiteSpace=wrap;rounded=0;" parent="1" vertex="1">
          <mxGeometry x="360" y="320" width="40" height="40" as="geometry" />
        </mxCell>
        <mxCell id="A2_iJ8km8CkKrE5Ka0Ly-32" value="B7" style="text;html=1;align=center;verticalAlign=middle;whiteSpace=wrap;rounded=0;" parent="1" vertex="1">
          <mxGeometry x="440" y="320" width="40" height="40" as="geometry" />
        </mxCell>
        <mxCell id="A2_iJ8km8CkKrE5Ka0Ly-33" value="" style="endArrow=classic;html=1;rounded=0;exitX=0.5;exitY=1;exitDx=0;exitDy=0;entryX=0.5;entryY=0;entryDx=0;entryDy=0;" parent="1" source="A2_iJ8km8CkKrE5Ka0Ly-32" edge="1">
          <mxGeometry width="50" height="50" relative="1" as="geometry">
            <mxPoint x="480" y="310" as="sourcePoint" />
            <mxPoint x="460" y="400" as="targetPoint" />
          </mxGeometry>
        </mxCell>
        <mxCell id="A2_iJ8km8CkKrE5Ka0Ly-35" value="b" style="text;html=1;align=center;verticalAlign=middle;whiteSpace=wrap;rounded=0;" parent="1" vertex="1">
          <mxGeometry x="440" y="400" width="40" height="40" as="geometry" />
        </mxCell>
        <mxCell id="A2_iJ8km8CkKrE5Ka0Ly-36" value="" style="endArrow=classic;html=1;rounded=0;exitX=0.5;exitY=1;exitDx=0;exitDy=0;entryX=0.5;entryY=0;entryDx=0;entryDy=0;" parent="1" source="A2_iJ8km8CkKrE5Ka0Ly-11" target="A2_iJ8km8CkKrE5Ka0Ly-31" edge="1">
          <mxGeometry width="50" height="50" relative="1" as="geometry">
            <mxPoint x="320" y="310" as="sourcePoint" />
            <mxPoint x="370" y="260" as="targetPoint" />
          </mxGeometry>
        </mxCell>
        <mxCell id="A2_iJ8km8CkKrE5Ka0Ly-37" value="" style="endArrow=classic;html=1;rounded=0;exitX=0.5;exitY=1;exitDx=0;exitDy=0;entryX=0.5;entryY=0;entryDx=0;entryDy=0;" parent="1" source="A2_iJ8km8CkKrE5Ka0Ly-11" target="A2_iJ8km8CkKrE5Ka0Ly-32" edge="1">
          <mxGeometry width="50" height="50" relative="1" as="geometry">
            <mxPoint x="320" y="310" as="sourcePoint" />
            <mxPoint x="370" y="260" as="targetPoint" />
          </mxGeometry>
        </mxCell>
        <mxCell id="A2_iJ8km8CkKrE5Ka0Ly-38" value="a" style="text;html=1;align=center;verticalAlign=middle;whiteSpace=wrap;rounded=0;" parent="1" vertex="1">
          <mxGeometry x="480" y="240" width="40" height="40" as="geometry" />
        </mxCell>
        <mxCell id="A2_iJ8km8CkKrE5Ka0Ly-39" value="B8" style="text;html=1;align=center;verticalAlign=middle;whiteSpace=wrap;rounded=0;" parent="1" vertex="1">
          <mxGeometry x="560" y="240" width="40" height="40" as="geometry" />
        </mxCell>
        <mxCell id="A2_iJ8km8CkKrE5Ka0Ly-40" value="a" style="text;html=1;align=center;verticalAlign=middle;whiteSpace=wrap;rounded=0;" parent="1" vertex="1">
          <mxGeometry x="520" y="320" width="40" height="40" as="geometry" />
        </mxCell>
        <mxCell id="A2_iJ8km8CkKrE5Ka0Ly-41" value="A5" style="text;html=1;align=center;verticalAlign=middle;whiteSpace=wrap;rounded=0;" parent="1" vertex="1">
          <mxGeometry x="600" y="320" width="40" height="40" as="geometry" />
        </mxCell>
        <mxCell id="A2_iJ8km8CkKrE5Ka0Ly-42" value="a" style="text;html=1;align=center;verticalAlign=middle;whiteSpace=wrap;rounded=0;" parent="1" vertex="1">
          <mxGeometry x="560" y="400" width="40" height="40" as="geometry" />
        </mxCell>
        <mxCell id="A2_iJ8km8CkKrE5Ka0Ly-43" value="B7" style="text;html=1;align=center;verticalAlign=middle;whiteSpace=wrap;rounded=0;" parent="1" vertex="1">
          <mxGeometry x="640" y="400" width="40" height="40" as="geometry" />
        </mxCell>
        <mxCell id="A2_iJ8km8CkKrE5Ka0Ly-44" value="b" style="text;html=1;align=center;verticalAlign=middle;whiteSpace=wrap;rounded=0;" parent="1" vertex="1">
          <mxGeometry x="640" y="480" width="40" height="40" as="geometry" />
        </mxCell>
        <mxCell id="A2_iJ8km8CkKrE5Ka0Ly-45" value="" style="endArrow=classic;html=1;rounded=0;exitX=0.5;exitY=1;exitDx=0;exitDy=0;entryX=0.5;entryY=0;entryDx=0;entryDy=0;" parent="1" source="A2_iJ8km8CkKrE5Ka0Ly-7" target="A2_iJ8km8CkKrE5Ka0Ly-38" edge="1">
          <mxGeometry width="50" height="50" relative="1" as="geometry">
            <mxPoint x="430" y="550" as="sourcePoint" />
            <mxPoint x="480" y="500" as="targetPoint" />
          </mxGeometry>
        </mxCell>
        <mxCell id="A2_iJ8km8CkKrE5Ka0Ly-46" value="" style="endArrow=classic;html=1;rounded=0;exitX=0.5;exitY=1;exitDx=0;exitDy=0;entryX=0.5;entryY=0;entryDx=0;entryDy=0;" parent="1" source="A2_iJ8km8CkKrE5Ka0Ly-7" target="A2_iJ8km8CkKrE5Ka0Ly-39" edge="1">
          <mxGeometry width="50" height="50" relative="1" as="geometry">
            <mxPoint x="560" y="180" as="sourcePoint" />
            <mxPoint x="600" y="220" as="targetPoint" />
          </mxGeometry>
        </mxCell>
        <mxCell id="A2_iJ8km8CkKrE5Ka0Ly-47" value="" style="endArrow=classic;html=1;rounded=0;exitX=0.5;exitY=1;exitDx=0;exitDy=0;entryX=0.5;entryY=0;entryDx=0;entryDy=0;" parent="1" source="A2_iJ8km8CkKrE5Ka0Ly-39" target="A2_iJ8km8CkKrE5Ka0Ly-40" edge="1">
          <mxGeometry width="50" height="50" relative="1" as="geometry">
            <mxPoint x="630" y="280" as="sourcePoint" />
            <mxPoint x="670" y="320" as="targetPoint" />
          </mxGeometry>
        </mxCell>
        <mxCell id="A2_iJ8km8CkKrE5Ka0Ly-48" value="" style="endArrow=classic;html=1;rounded=0;exitX=0.5;exitY=1;exitDx=0;exitDy=0;entryX=0.5;entryY=0;entryDx=0;entryDy=0;" parent="1" source="A2_iJ8km8CkKrE5Ka0Ly-39" target="A2_iJ8km8CkKrE5Ka0Ly-41" edge="1">
          <mxGeometry width="50" height="50" relative="1" as="geometry">
            <mxPoint x="670" y="280" as="sourcePoint" />
            <mxPoint x="710" y="320" as="targetPoint" />
          </mxGeometry>
        </mxCell>
        <mxCell id="A2_iJ8km8CkKrE5Ka0Ly-49" value="" style="endArrow=classic;html=1;rounded=0;exitX=0.5;exitY=1;exitDx=0;exitDy=0;entryX=0.5;entryY=0;entryDx=0;entryDy=0;" parent="1" source="A2_iJ8km8CkKrE5Ka0Ly-41" target="A2_iJ8km8CkKrE5Ka0Ly-42" edge="1">
          <mxGeometry width="50" height="50" relative="1" as="geometry">
            <mxPoint x="700" y="370" as="sourcePoint" />
            <mxPoint x="740" y="410" as="targetPoint" />
          </mxGeometry>
        </mxCell>
        <mxCell id="A2_iJ8km8CkKrE5Ka0Ly-50" value="" style="endArrow=classic;html=1;rounded=0;exitX=0.5;exitY=1;exitDx=0;exitDy=0;entryX=0.5;entryY=0;entryDx=0;entryDy=0;" parent="1" source="A2_iJ8km8CkKrE5Ka0Ly-41" target="A2_iJ8km8CkKrE5Ka0Ly-43" edge="1">
          <mxGeometry width="50" height="50" relative="1" as="geometry">
            <mxPoint x="580" y="490" as="sourcePoint" />
            <mxPoint x="620" y="530" as="targetPoint" />
          </mxGeometry>
        </mxCell>
        <mxCell id="A2_iJ8km8CkKrE5Ka0Ly-51" value="" style="endArrow=classic;html=1;rounded=0;exitX=0.5;exitY=1;exitDx=0;exitDy=0;entryX=0.5;entryY=0;entryDx=0;entryDy=0;" parent="1" source="A2_iJ8km8CkKrE5Ka0Ly-43" target="A2_iJ8km8CkKrE5Ka0Ly-44" edge="1">
          <mxGeometry width="50" height="50" relative="1" as="geometry">
            <mxPoint x="700" y="350" as="sourcePoint" />
            <mxPoint x="740" y="390" as="targetPoint" />
          </mxGeometry>
        </mxCell>
        <mxCell id="A2_iJ8km8CkKrE5Ka0Ly-94" value="S1" style="text;html=1;align=center;verticalAlign=middle;whiteSpace=wrap;rounded=0;" parent="1" vertex="1">
          <mxGeometry x="325" y="560" width="40" height="40" as="geometry" />
        </mxCell>
        <mxCell id="A2_iJ8km8CkKrE5Ka0Ly-95" value="S1" style="text;html=1;align=center;verticalAlign=middle;whiteSpace=wrap;rounded=0;" parent="1" vertex="1">
          <mxGeometry x="285" y="640" width="40" height="40" as="geometry" />
        </mxCell>
        <mxCell id="A2_iJ8km8CkKrE5Ka0Ly-96" value="a" style="text;html=1;align=center;verticalAlign=middle;whiteSpace=wrap;rounded=0;" parent="1" vertex="1">
          <mxGeometry x="205" y="640" width="40" height="40" as="geometry" />
        </mxCell>
        <mxCell id="A2_iJ8km8CkKrE5Ka0Ly-97" value="b" style="text;html=1;align=center;verticalAlign=middle;whiteSpace=wrap;rounded=0;" parent="1" vertex="1">
          <mxGeometry x="365" y="640" width="40" height="40" as="geometry" />
        </mxCell>
        <mxCell id="A2_iJ8km8CkKrE5Ka0Ly-98" value="A5" style="text;html=1;align=center;verticalAlign=middle;whiteSpace=wrap;rounded=0;" parent="1" vertex="1">
          <mxGeometry x="445" y="640" width="40" height="40" as="geometry" />
        </mxCell>
        <mxCell id="A2_iJ8km8CkKrE5Ka0Ly-99" value="S2" style="text;html=1;align=center;verticalAlign=middle;whiteSpace=wrap;rounded=0;" parent="1" vertex="1">
          <mxGeometry x="245" y="720" width="40" height="40" as="geometry" />
        </mxCell>
        <mxCell id="A2_iJ8km8CkKrE5Ka0Ly-100" value="a" style="text;html=1;align=center;verticalAlign=middle;whiteSpace=wrap;rounded=0;" parent="1" vertex="1">
          <mxGeometry x="165" y="720" width="40" height="40" as="geometry" />
        </mxCell>
        <mxCell id="A2_iJ8km8CkKrE5Ka0Ly-101" value="b" style="text;html=1;align=center;verticalAlign=middle;whiteSpace=wrap;rounded=0;" parent="1" vertex="1">
          <mxGeometry x="325" y="720" width="40" height="40" as="geometry" />
        </mxCell>
        <mxCell id="A2_iJ8km8CkKrE5Ka0Ly-102" value="A5" style="text;html=1;align=center;verticalAlign=middle;whiteSpace=wrap;rounded=0;" parent="1" vertex="1">
          <mxGeometry x="405" y="720" width="40" height="40" as="geometry" />
        </mxCell>
        <mxCell id="A2_iJ8km8CkKrE5Ka0Ly-103" value="a" style="text;html=1;align=center;verticalAlign=middle;whiteSpace=wrap;rounded=0;" parent="1" vertex="1">
          <mxGeometry x="205" y="800" width="40" height="40" as="geometry" />
        </mxCell>
        <mxCell id="A2_iJ8km8CkKrE5Ka0Ly-104" value="B7" style="text;html=1;align=center;verticalAlign=middle;whiteSpace=wrap;rounded=0;" parent="1" vertex="1">
          <mxGeometry x="285" y="800" width="40" height="40" as="geometry" />
        </mxCell>
        <mxCell id="A2_iJ8km8CkKrE5Ka0Ly-105" value="b" style="text;html=1;align=center;verticalAlign=middle;whiteSpace=wrap;rounded=0;" parent="1" vertex="1">
          <mxGeometry x="285" y="880" width="40" height="40" as="geometry" />
        </mxCell>
        <mxCell id="A2_iJ8km8CkKrE5Ka0Ly-106" value="" style="endArrow=classic;html=1;rounded=0;exitX=0.5;exitY=1;exitDx=0;exitDy=0;entryX=0.5;entryY=0;entryDx=0;entryDy=0;" parent="1" source="A2_iJ8km8CkKrE5Ka0Ly-94" target="A2_iJ8km8CkKrE5Ka0Ly-96" edge="1">
          <mxGeometry width="50" height="50" relative="1" as="geometry">
            <mxPoint x="325" y="790" as="sourcePoint" />
            <mxPoint x="375" y="740" as="targetPoint" />
          </mxGeometry>
        </mxCell>
        <mxCell id="A2_iJ8km8CkKrE5Ka0Ly-107" value="" style="endArrow=classic;html=1;rounded=0;exitX=0.5;exitY=1;exitDx=0;exitDy=0;entryX=0.5;entryY=0;entryDx=0;entryDy=0;" parent="1" source="A2_iJ8km8CkKrE5Ka0Ly-94" target="A2_iJ8km8CkKrE5Ka0Ly-95" edge="1">
          <mxGeometry width="50" height="50" relative="1" as="geometry">
            <mxPoint x="325" y="790" as="sourcePoint" />
            <mxPoint x="375" y="740" as="targetPoint" />
          </mxGeometry>
        </mxCell>
        <mxCell id="A2_iJ8km8CkKrE5Ka0Ly-108" value="" style="endArrow=classic;html=1;rounded=0;exitX=0.5;exitY=1;exitDx=0;exitDy=0;entryX=0.5;entryY=0;entryDx=0;entryDy=0;" parent="1" source="A2_iJ8km8CkKrE5Ka0Ly-94" target="A2_iJ8km8CkKrE5Ka0Ly-97" edge="1">
          <mxGeometry width="50" height="50" relative="1" as="geometry">
            <mxPoint x="325" y="790" as="sourcePoint" />
            <mxPoint x="375" y="740" as="targetPoint" />
          </mxGeometry>
        </mxCell>
        <mxCell id="A2_iJ8km8CkKrE5Ka0Ly-109" value="" style="endArrow=classic;html=1;rounded=0;exitX=0.5;exitY=1;exitDx=0;exitDy=0;entryX=0.5;entryY=0;entryDx=0;entryDy=0;" parent="1" source="A2_iJ8km8CkKrE5Ka0Ly-94" target="A2_iJ8km8CkKrE5Ka0Ly-98" edge="1">
          <mxGeometry width="50" height="50" relative="1" as="geometry">
            <mxPoint x="325" y="790" as="sourcePoint" />
            <mxPoint x="375" y="740" as="targetPoint" />
          </mxGeometry>
        </mxCell>
        <mxCell id="A2_iJ8km8CkKrE5Ka0Ly-110" value="" style="endArrow=classic;html=1;rounded=0;exitX=0.5;exitY=1;exitDx=0;exitDy=0;entryX=0.5;entryY=0;entryDx=0;entryDy=0;" parent="1" source="A2_iJ8km8CkKrE5Ka0Ly-95" target="A2_iJ8km8CkKrE5Ka0Ly-100" edge="1">
          <mxGeometry width="50" height="50" relative="1" as="geometry">
            <mxPoint x="325" y="790" as="sourcePoint" />
            <mxPoint x="375" y="740" as="targetPoint" />
          </mxGeometry>
        </mxCell>
        <mxCell id="A2_iJ8km8CkKrE5Ka0Ly-111" value="" style="endArrow=classic;html=1;rounded=0;exitX=0.5;exitY=1;exitDx=0;exitDy=0;entryX=0.5;entryY=0;entryDx=0;entryDy=0;" parent="1" source="A2_iJ8km8CkKrE5Ka0Ly-95" target="A2_iJ8km8CkKrE5Ka0Ly-99" edge="1">
          <mxGeometry width="50" height="50" relative="1" as="geometry">
            <mxPoint x="325" y="790" as="sourcePoint" />
            <mxPoint x="375" y="740" as="targetPoint" />
          </mxGeometry>
        </mxCell>
        <mxCell id="A2_iJ8km8CkKrE5Ka0Ly-112" value="" style="endArrow=classic;html=1;rounded=0;entryX=0.5;entryY=0;entryDx=0;entryDy=0;" parent="1" target="A2_iJ8km8CkKrE5Ka0Ly-101" edge="1">
          <mxGeometry width="50" height="50" relative="1" as="geometry">
            <mxPoint x="305" y="680" as="sourcePoint" />
            <mxPoint x="375" y="740" as="targetPoint" />
          </mxGeometry>
        </mxCell>
        <mxCell id="A2_iJ8km8CkKrE5Ka0Ly-113" value="" style="endArrow=classic;html=1;rounded=0;exitX=0.5;exitY=1;exitDx=0;exitDy=0;entryX=0.5;entryY=0;entryDx=0;entryDy=0;" parent="1" source="A2_iJ8km8CkKrE5Ka0Ly-95" target="A2_iJ8km8CkKrE5Ka0Ly-102" edge="1">
          <mxGeometry width="50" height="50" relative="1" as="geometry">
            <mxPoint x="325" y="790" as="sourcePoint" />
            <mxPoint x="375" y="740" as="targetPoint" />
          </mxGeometry>
        </mxCell>
        <mxCell id="A2_iJ8km8CkKrE5Ka0Ly-114" value="" style="endArrow=classic;html=1;rounded=0;exitX=0.5;exitY=1;exitDx=0;exitDy=0;entryX=0.5;entryY=0;entryDx=0;entryDy=0;" parent="1" source="A2_iJ8km8CkKrE5Ka0Ly-99" target="A2_iJ8km8CkKrE5Ka0Ly-103" edge="1">
          <mxGeometry width="50" height="50" relative="1" as="geometry">
            <mxPoint x="325" y="790" as="sourcePoint" />
            <mxPoint x="375" y="740" as="targetPoint" />
          </mxGeometry>
        </mxCell>
        <mxCell id="A2_iJ8km8CkKrE5Ka0Ly-115" value="" style="endArrow=classic;html=1;rounded=0;exitX=0.5;exitY=1;exitDx=0;exitDy=0;entryX=0.5;entryY=0;entryDx=0;entryDy=0;" parent="1" source="A2_iJ8km8CkKrE5Ka0Ly-99" target="A2_iJ8km8CkKrE5Ka0Ly-104" edge="1">
          <mxGeometry width="50" height="50" relative="1" as="geometry">
            <mxPoint x="325" y="790" as="sourcePoint" />
            <mxPoint x="375" y="740" as="targetPoint" />
          </mxGeometry>
        </mxCell>
        <mxCell id="A2_iJ8km8CkKrE5Ka0Ly-116" value="" style="endArrow=classic;html=1;rounded=0;exitX=0.5;exitY=1;exitDx=0;exitDy=0;entryX=0.5;entryY=0;entryDx=0;entryDy=0;" parent="1" source="A2_iJ8km8CkKrE5Ka0Ly-104" target="A2_iJ8km8CkKrE5Ka0Ly-105" edge="1">
          <mxGeometry width="50" height="50" relative="1" as="geometry">
            <mxPoint x="325" y="790" as="sourcePoint" />
            <mxPoint x="375" y="740" as="targetPoint" />
          </mxGeometry>
        </mxCell>
        <mxCell id="A2_iJ8km8CkKrE5Ka0Ly-117" value="a" style="text;html=1;align=center;verticalAlign=middle;whiteSpace=wrap;rounded=0;" parent="1" vertex="1">
          <mxGeometry x="365" y="800" width="40" height="40" as="geometry" />
        </mxCell>
        <mxCell id="A2_iJ8km8CkKrE5Ka0Ly-118" value="B7" style="text;html=1;align=center;verticalAlign=middle;whiteSpace=wrap;rounded=0;" parent="1" vertex="1">
          <mxGeometry x="445" y="800" width="40" height="40" as="geometry" />
        </mxCell>
        <mxCell id="A2_iJ8km8CkKrE5Ka0Ly-119" value="" style="endArrow=classic;html=1;rounded=0;exitX=0.5;exitY=1;exitDx=0;exitDy=0;entryX=0.5;entryY=0;entryDx=0;entryDy=0;" parent="1" source="A2_iJ8km8CkKrE5Ka0Ly-118" edge="1">
          <mxGeometry width="50" height="50" relative="1" as="geometry">
            <mxPoint x="485" y="790" as="sourcePoint" />
            <mxPoint x="465" y="880" as="targetPoint" />
          </mxGeometry>
        </mxCell>
        <mxCell id="A2_iJ8km8CkKrE5Ka0Ly-120" value="b" style="text;html=1;align=center;verticalAlign=middle;whiteSpace=wrap;rounded=0;" parent="1" vertex="1">
          <mxGeometry x="445" y="880" width="40" height="40" as="geometry" />
        </mxCell>
        <mxCell id="A2_iJ8km8CkKrE5Ka0Ly-121" value="" style="endArrow=classic;html=1;rounded=0;exitX=0.5;exitY=1;exitDx=0;exitDy=0;entryX=0.5;entryY=0;entryDx=0;entryDy=0;" parent="1" source="A2_iJ8km8CkKrE5Ka0Ly-102" target="A2_iJ8km8CkKrE5Ka0Ly-117" edge="1">
          <mxGeometry width="50" height="50" relative="1" as="geometry">
            <mxPoint x="325" y="790" as="sourcePoint" />
            <mxPoint x="375" y="740" as="targetPoint" />
          </mxGeometry>
        </mxCell>
        <mxCell id="A2_iJ8km8CkKrE5Ka0Ly-122" value="" style="endArrow=classic;html=1;rounded=0;exitX=0.5;exitY=1;exitDx=0;exitDy=0;entryX=0.5;entryY=0;entryDx=0;entryDy=0;" parent="1" source="A2_iJ8km8CkKrE5Ka0Ly-102" target="A2_iJ8km8CkKrE5Ka0Ly-118" edge="1">
          <mxGeometry width="50" height="50" relative="1" as="geometry">
            <mxPoint x="325" y="790" as="sourcePoint" />
            <mxPoint x="375" y="740" as="targetPoint" />
          </mxGeometry>
        </mxCell>
        <mxCell id="A2_iJ8km8CkKrE5Ka0Ly-123" value="a" style="text;html=1;align=center;verticalAlign=middle;whiteSpace=wrap;rounded=0;" parent="1" vertex="1">
          <mxGeometry x="485" y="720" width="40" height="40" as="geometry" />
        </mxCell>
        <mxCell id="A2_iJ8km8CkKrE5Ka0Ly-124" value="B8" style="text;html=1;align=center;verticalAlign=middle;whiteSpace=wrap;rounded=0;" parent="1" vertex="1">
          <mxGeometry x="565" y="720" width="40" height="40" as="geometry" />
        </mxCell>
        <mxCell id="A2_iJ8km8CkKrE5Ka0Ly-125" value="a" style="text;html=1;align=center;verticalAlign=middle;whiteSpace=wrap;rounded=0;" parent="1" vertex="1">
          <mxGeometry x="525" y="800" width="40" height="40" as="geometry" />
        </mxCell>
        <mxCell id="A2_iJ8km8CkKrE5Ka0Ly-126" value="A6" style="text;html=1;align=center;verticalAlign=middle;whiteSpace=wrap;rounded=0;" parent="1" vertex="1">
          <mxGeometry x="605" y="800" width="40" height="40" as="geometry" />
        </mxCell>
        <mxCell id="A2_iJ8km8CkKrE5Ka0Ly-130" value="" style="endArrow=classic;html=1;rounded=0;exitX=0.5;exitY=1;exitDx=0;exitDy=0;entryX=0.5;entryY=0;entryDx=0;entryDy=0;" parent="1" source="A2_iJ8km8CkKrE5Ka0Ly-98" target="A2_iJ8km8CkKrE5Ka0Ly-123" edge="1">
          <mxGeometry width="50" height="50" relative="1" as="geometry">
            <mxPoint x="435" y="1030" as="sourcePoint" />
            <mxPoint x="485" y="980" as="targetPoint" />
          </mxGeometry>
        </mxCell>
        <mxCell id="A2_iJ8km8CkKrE5Ka0Ly-131" value="" style="endArrow=classic;html=1;rounded=0;exitX=0.5;exitY=1;exitDx=0;exitDy=0;entryX=0.5;entryY=0;entryDx=0;entryDy=0;" parent="1" source="A2_iJ8km8CkKrE5Ka0Ly-98" target="A2_iJ8km8CkKrE5Ka0Ly-124" edge="1">
          <mxGeometry width="50" height="50" relative="1" as="geometry">
            <mxPoint x="565" y="660" as="sourcePoint" />
            <mxPoint x="605" y="700" as="targetPoint" />
          </mxGeometry>
        </mxCell>
        <mxCell id="A2_iJ8km8CkKrE5Ka0Ly-132" value="" style="endArrow=classic;html=1;rounded=0;exitX=0.5;exitY=1;exitDx=0;exitDy=0;entryX=0.5;entryY=0;entryDx=0;entryDy=0;" parent="1" source="A2_iJ8km8CkKrE5Ka0Ly-124" target="A2_iJ8km8CkKrE5Ka0Ly-125" edge="1">
          <mxGeometry width="50" height="50" relative="1" as="geometry">
            <mxPoint x="635" y="760" as="sourcePoint" />
            <mxPoint x="675" y="800" as="targetPoint" />
          </mxGeometry>
        </mxCell>
        <mxCell id="A2_iJ8km8CkKrE5Ka0Ly-133" value="" style="endArrow=classic;html=1;rounded=0;exitX=0.5;exitY=1;exitDx=0;exitDy=0;entryX=0.5;entryY=0;entryDx=0;entryDy=0;" parent="1" source="A2_iJ8km8CkKrE5Ka0Ly-124" target="A2_iJ8km8CkKrE5Ka0Ly-126" edge="1">
          <mxGeometry width="50" height="50" relative="1" as="geometry">
            <mxPoint x="675" y="760" as="sourcePoint" />
            <mxPoint x="715" y="800" as="targetPoint" />
          </mxGeometry>
        </mxCell>
        <mxCell id="A2_iJ8km8CkKrE5Ka0Ly-137" value="S2" style="text;html=1;align=center;verticalAlign=middle;whiteSpace=wrap;rounded=0;" parent="1" vertex="1">
          <mxGeometry x="605" y="880" width="40" height="40" as="geometry" />
        </mxCell>
        <mxCell id="A2_iJ8km8CkKrE5Ka0Ly-138" value="" style="endArrow=classic;html=1;rounded=0;exitX=0.5;exitY=1;exitDx=0;exitDy=0;entryX=0.5;entryY=0;entryDx=0;entryDy=0;" parent="1" source="A2_iJ8km8CkKrE5Ka0Ly-126" target="A2_iJ8km8CkKrE5Ka0Ly-137" edge="1">
          <mxGeometry width="50" height="50" relative="1" as="geometry">
            <mxPoint x="380" y="730" as="sourcePoint" />
            <mxPoint x="430" y="680" as="targetPoint" />
          </mxGeometry>
        </mxCell>
        <mxCell id="A2_iJ8km8CkKrE5Ka0Ly-139" value="a" style="text;html=1;align=center;verticalAlign=middle;whiteSpace=wrap;rounded=0;" parent="1" vertex="1">
          <mxGeometry x="565" y="960" width="40" height="40" as="geometry" />
        </mxCell>
        <mxCell id="A2_iJ8km8CkKrE5Ka0Ly-144" style="edgeStyle=orthogonalEdgeStyle;rounded=0;orthogonalLoop=1;jettySize=auto;html=1;entryX=0.5;entryY=0;entryDx=0;entryDy=0;" parent="1" source="A2_iJ8km8CkKrE5Ka0Ly-140" target="A2_iJ8km8CkKrE5Ka0Ly-143" edge="1">
          <mxGeometry relative="1" as="geometry" />
        </mxCell>
        <mxCell id="A2_iJ8km8CkKrE5Ka0Ly-140" value="B7" style="text;html=1;align=center;verticalAlign=middle;whiteSpace=wrap;rounded=0;" parent="1" vertex="1">
          <mxGeometry x="645" y="960" width="40" height="40" as="geometry" />
        </mxCell>
        <mxCell id="A2_iJ8km8CkKrE5Ka0Ly-141" value="" style="endArrow=classic;html=1;rounded=0;exitX=0.5;exitY=1;exitDx=0;exitDy=0;entryX=0.5;entryY=0;entryDx=0;entryDy=0;" parent="1" source="A2_iJ8km8CkKrE5Ka0Ly-137" target="A2_iJ8km8CkKrE5Ka0Ly-139" edge="1">
          <mxGeometry width="50" height="50" relative="1" as="geometry">
            <mxPoint x="380" y="730" as="sourcePoint" />
            <mxPoint x="430" y="680" as="targetPoint" />
          </mxGeometry>
        </mxCell>
        <mxCell id="A2_iJ8km8CkKrE5Ka0Ly-142" value="" style="endArrow=classic;html=1;rounded=0;exitX=0.5;exitY=1;exitDx=0;exitDy=0;entryX=0.5;entryY=0;entryDx=0;entryDy=0;" parent="1" source="A2_iJ8km8CkKrE5Ka0Ly-137" target="A2_iJ8km8CkKrE5Ka0Ly-140" edge="1">
          <mxGeometry width="50" height="50" relative="1" as="geometry">
            <mxPoint x="380" y="730" as="sourcePoint" />
            <mxPoint x="430" y="680" as="targetPoint" />
          </mxGeometry>
        </mxCell>
        <mxCell id="A2_iJ8km8CkKrE5Ka0Ly-143" value="b" style="text;html=1;align=center;verticalAlign=middle;whiteSpace=wrap;rounded=0;" parent="1" vertex="1">
          <mxGeometry x="645" y="1040" width="40" height="40" as="geometry" />
        </mxCell>
        <mxCell id="xjBg1UHBpUE3JP_U8JyF-1" value="S1" style="text;html=1;align=center;verticalAlign=middle;whiteSpace=wrap;rounded=0;fillColor=none;strokeColor=none;" parent="1" vertex="1">
          <mxGeometry x="320" y="1160" width="40" height="40" as="geometry" />
        </mxCell>
        <mxCell id="xjBg1UHBpUE3JP_U8JyF-2" value="S3" style="text;html=1;align=center;verticalAlign=middle;whiteSpace=wrap;rounded=0;" parent="1" vertex="1">
          <mxGeometry x="280" y="1240" width="40" height="40" as="geometry" />
        </mxCell>
        <mxCell id="xjBg1UHBpUE3JP_U8JyF-3" value="b" style="text;html=1;align=center;verticalAlign=middle;whiteSpace=wrap;rounded=0;" parent="1" vertex="1">
          <mxGeometry x="360" y="1240" width="40" height="40" as="geometry" />
        </mxCell>
        <mxCell id="xjBg1UHBpUE3JP_U8JyF-4" value="A6" style="text;html=1;align=center;verticalAlign=middle;whiteSpace=wrap;rounded=0;" parent="1" vertex="1">
          <mxGeometry x="440" y="1240" width="40" height="40" as="geometry" />
        </mxCell>
        <mxCell id="xjBg1UHBpUE3JP_U8JyF-5" value="a" style="text;html=1;align=center;verticalAlign=middle;whiteSpace=wrap;rounded=0;" parent="1" vertex="1">
          <mxGeometry x="200" y="1240" width="40" height="40" as="geometry" />
        </mxCell>
        <mxCell id="xjBg1UHBpUE3JP_U8JyF-6" value="" style="endArrow=classic;html=1;rounded=0;entryX=0.5;entryY=0;entryDx=0;entryDy=0;" parent="1" target="xjBg1UHBpUE3JP_U8JyF-5" edge="1">
          <mxGeometry width="50" height="50" relative="1" as="geometry">
            <mxPoint x="340" y="1200" as="sourcePoint" />
            <mxPoint x="410" y="1030" as="targetPoint" />
          </mxGeometry>
        </mxCell>
        <mxCell id="xjBg1UHBpUE3JP_U8JyF-8" value="" style="endArrow=classic;html=1;rounded=0;entryX=0.5;entryY=0;entryDx=0;entryDy=0;exitX=0.5;exitY=1;exitDx=0;exitDy=0;" parent="1" source="xjBg1UHBpUE3JP_U8JyF-1" target="xjBg1UHBpUE3JP_U8JyF-2" edge="1">
          <mxGeometry width="50" height="50" relative="1" as="geometry">
            <mxPoint x="560" y="1190" as="sourcePoint" />
            <mxPoint x="440" y="1230" as="targetPoint" />
          </mxGeometry>
        </mxCell>
        <mxCell id="xjBg1UHBpUE3JP_U8JyF-9" value="" style="endArrow=classic;html=1;rounded=0;entryX=0.5;entryY=0;entryDx=0;entryDy=0;exitX=0.5;exitY=1;exitDx=0;exitDy=0;" parent="1" source="xjBg1UHBpUE3JP_U8JyF-1" target="xjBg1UHBpUE3JP_U8JyF-3" edge="1">
          <mxGeometry width="50" height="50" relative="1" as="geometry">
            <mxPoint x="540" y="1190" as="sourcePoint" />
            <mxPoint x="420" y="1230" as="targetPoint" />
          </mxGeometry>
        </mxCell>
        <mxCell id="xjBg1UHBpUE3JP_U8JyF-10" value="" style="endArrow=classic;html=1;rounded=0;entryX=0.5;entryY=0;entryDx=0;entryDy=0;" parent="1" target="xjBg1UHBpUE3JP_U8JyF-4" edge="1">
          <mxGeometry width="50" height="50" relative="1" as="geometry">
            <mxPoint x="340" y="1200" as="sourcePoint" />
            <mxPoint x="420" y="1180" as="targetPoint" />
          </mxGeometry>
        </mxCell>
        <mxCell id="xjBg1UHBpUE3JP_U8JyF-11" value="A6" style="text;html=1;align=center;verticalAlign=middle;whiteSpace=wrap;rounded=0;" parent="1" vertex="1">
          <mxGeometry x="280" y="1320" width="40" height="40" as="geometry" />
        </mxCell>
        <mxCell id="xjBg1UHBpUE3JP_U8JyF-12" value="" style="endArrow=classic;html=1;rounded=0;exitX=0.5;exitY=1;exitDx=0;exitDy=0;entryX=0.5;entryY=0;entryDx=0;entryDy=0;" parent="1" source="xjBg1UHBpUE3JP_U8JyF-2" target="xjBg1UHBpUE3JP_U8JyF-11" edge="1">
          <mxGeometry width="50" height="50" relative="1" as="geometry">
            <mxPoint x="360" y="1180" as="sourcePoint" />
            <mxPoint x="410" y="1130" as="targetPoint" />
          </mxGeometry>
        </mxCell>
        <mxCell id="xjBg1UHBpUE3JP_U8JyF-13" value="S3" style="text;html=1;align=center;verticalAlign=middle;whiteSpace=wrap;rounded=0;" parent="1" vertex="1">
          <mxGeometry x="280" y="1400" width="40" height="40" as="geometry" />
        </mxCell>
        <mxCell id="xjBg1UHBpUE3JP_U8JyF-14" value="A6" style="text;html=1;align=center;verticalAlign=middle;whiteSpace=wrap;rounded=0;" parent="1" vertex="1">
          <mxGeometry x="280" y="1480" width="40" height="40" as="geometry" />
        </mxCell>
        <mxCell id="xjBg1UHBpUE3JP_U8JyF-15" value="S3" style="text;html=1;align=center;verticalAlign=middle;whiteSpace=wrap;rounded=0;" parent="1" vertex="1">
          <mxGeometry x="280" y="1560" width="40" height="40" as="geometry" />
        </mxCell>
        <mxCell id="xjBg1UHBpUE3JP_U8JyF-16" value="A5" style="text;html=1;align=center;verticalAlign=middle;whiteSpace=wrap;rounded=0;" parent="1" vertex="1">
          <mxGeometry x="280" y="1640" width="40" height="40" as="geometry" />
        </mxCell>
        <mxCell id="xjBg1UHBpUE3JP_U8JyF-17" value="a" style="text;html=1;align=center;verticalAlign=middle;whiteSpace=wrap;rounded=0;" parent="1" vertex="1">
          <mxGeometry x="240" y="1720" width="40" height="40" as="geometry" />
        </mxCell>
        <mxCell id="xjBg1UHBpUE3JP_U8JyF-18" value="B7" style="text;html=1;align=center;verticalAlign=middle;whiteSpace=wrap;rounded=0;" parent="1" vertex="1">
          <mxGeometry x="320" y="1720" width="40" height="40" as="geometry" />
        </mxCell>
        <mxCell id="xjBg1UHBpUE3JP_U8JyF-19" value="b" style="text;html=1;align=center;verticalAlign=middle;whiteSpace=wrap;rounded=0;" parent="1" vertex="1">
          <mxGeometry x="320" y="1800" width="40" height="40" as="geometry" />
        </mxCell>
        <mxCell id="xjBg1UHBpUE3JP_U8JyF-20" value="" style="endArrow=classic;html=1;rounded=0;exitX=0.5;exitY=1;exitDx=0;exitDy=0;entryX=0.5;entryY=0;entryDx=0;entryDy=0;" parent="1" source="xjBg1UHBpUE3JP_U8JyF-11" target="xjBg1UHBpUE3JP_U8JyF-13" edge="1">
          <mxGeometry width="50" height="50" relative="1" as="geometry">
            <mxPoint x="360" y="1580" as="sourcePoint" />
            <mxPoint x="410" y="1530" as="targetPoint" />
          </mxGeometry>
        </mxCell>
        <mxCell id="xjBg1UHBpUE3JP_U8JyF-21" value="" style="endArrow=classic;html=1;rounded=0;exitX=0.5;exitY=1;exitDx=0;exitDy=0;entryX=0.5;entryY=0;entryDx=0;entryDy=0;" parent="1" source="xjBg1UHBpUE3JP_U8JyF-13" target="xjBg1UHBpUE3JP_U8JyF-14" edge="1">
          <mxGeometry width="50" height="50" relative="1" as="geometry">
            <mxPoint x="360" y="1580" as="sourcePoint" />
            <mxPoint x="410" y="1530" as="targetPoint" />
          </mxGeometry>
        </mxCell>
        <mxCell id="xjBg1UHBpUE3JP_U8JyF-22" value="" style="endArrow=classic;html=1;rounded=0;exitX=0.5;exitY=1;exitDx=0;exitDy=0;entryX=0.5;entryY=0;entryDx=0;entryDy=0;" parent="1" source="xjBg1UHBpUE3JP_U8JyF-14" target="xjBg1UHBpUE3JP_U8JyF-15" edge="1">
          <mxGeometry width="50" height="50" relative="1" as="geometry">
            <mxPoint x="360" y="1580" as="sourcePoint" />
            <mxPoint x="410" y="1530" as="targetPoint" />
          </mxGeometry>
        </mxCell>
        <mxCell id="xjBg1UHBpUE3JP_U8JyF-23" value="" style="endArrow=classic;html=1;rounded=0;exitX=0.5;exitY=1;exitDx=0;exitDy=0;entryX=0.5;entryY=0;entryDx=0;entryDy=0;" parent="1" source="xjBg1UHBpUE3JP_U8JyF-15" target="xjBg1UHBpUE3JP_U8JyF-16" edge="1">
          <mxGeometry width="50" height="50" relative="1" as="geometry">
            <mxPoint x="360" y="1580" as="sourcePoint" />
            <mxPoint x="410" y="1530" as="targetPoint" />
          </mxGeometry>
        </mxCell>
        <mxCell id="xjBg1UHBpUE3JP_U8JyF-24" value="" style="endArrow=classic;html=1;rounded=0;exitX=0.5;exitY=1;exitDx=0;exitDy=0;entryX=0.5;entryY=0;entryDx=0;entryDy=0;" parent="1" source="xjBg1UHBpUE3JP_U8JyF-16" target="xjBg1UHBpUE3JP_U8JyF-17" edge="1">
          <mxGeometry width="50" height="50" relative="1" as="geometry">
            <mxPoint x="360" y="1580" as="sourcePoint" />
            <mxPoint x="410" y="1530" as="targetPoint" />
          </mxGeometry>
        </mxCell>
        <mxCell id="xjBg1UHBpUE3JP_U8JyF-25" value="" style="endArrow=classic;html=1;rounded=0;exitX=0.5;exitY=1;exitDx=0;exitDy=0;entryX=0.5;entryY=0;entryDx=0;entryDy=0;" parent="1" source="xjBg1UHBpUE3JP_U8JyF-16" target="xjBg1UHBpUE3JP_U8JyF-18" edge="1">
          <mxGeometry width="50" height="50" relative="1" as="geometry">
            <mxPoint x="360" y="1580" as="sourcePoint" />
            <mxPoint x="410" y="1530" as="targetPoint" />
          </mxGeometry>
        </mxCell>
        <mxCell id="xjBg1UHBpUE3JP_U8JyF-26" value="" style="endArrow=classic;html=1;rounded=0;exitX=0.5;exitY=1;exitDx=0;exitDy=0;entryX=0.5;entryY=0;entryDx=0;entryDy=0;" parent="1" source="xjBg1UHBpUE3JP_U8JyF-18" target="xjBg1UHBpUE3JP_U8JyF-19" edge="1">
          <mxGeometry width="50" height="50" relative="1" as="geometry">
            <mxPoint x="360" y="1580" as="sourcePoint" />
            <mxPoint x="410" y="1530" as="targetPoint" />
          </mxGeometry>
        </mxCell>
        <mxCell id="xjBg1UHBpUE3JP_U8JyF-27" value="S3" style="text;html=1;align=center;verticalAlign=middle;whiteSpace=wrap;rounded=0;" parent="1" vertex="1">
          <mxGeometry x="440" y="1320" width="40" height="40" as="geometry" />
        </mxCell>
        <mxCell id="xjBg1UHBpUE3JP_U8JyF-28" value="A6" style="text;html=1;align=center;verticalAlign=middle;whiteSpace=wrap;rounded=0;" parent="1" vertex="1">
          <mxGeometry x="440" y="1400" width="40" height="40" as="geometry" />
        </mxCell>
        <mxCell id="xjBg1UHBpUE3JP_U8JyF-29" value="S3" style="text;html=1;align=center;verticalAlign=middle;whiteSpace=wrap;rounded=0;" parent="1" vertex="1">
          <mxGeometry x="440" y="1480" width="40" height="40" as="geometry" />
        </mxCell>
        <mxCell id="xjBg1UHBpUE3JP_U8JyF-30" value="A5" style="text;html=1;align=center;verticalAlign=middle;whiteSpace=wrap;rounded=0;" parent="1" vertex="1">
          <mxGeometry x="440" y="1560" width="40" height="40" as="geometry" />
        </mxCell>
        <mxCell id="xjBg1UHBpUE3JP_U8JyF-31" value="a" style="text;html=1;align=center;verticalAlign=middle;whiteSpace=wrap;rounded=0;" parent="1" vertex="1">
          <mxGeometry x="400" y="1640" width="40" height="40" as="geometry" />
        </mxCell>
        <mxCell id="xjBg1UHBpUE3JP_U8JyF-32" value="B7" style="text;html=1;align=center;verticalAlign=middle;whiteSpace=wrap;rounded=0;" parent="1" vertex="1">
          <mxGeometry x="480" y="1640" width="40" height="40" as="geometry" />
        </mxCell>
        <mxCell id="xjBg1UHBpUE3JP_U8JyF-33" value="b" style="text;html=1;align=center;verticalAlign=middle;whiteSpace=wrap;rounded=0;" parent="1" vertex="1">
          <mxGeometry x="480" y="1720" width="40" height="40" as="geometry" />
        </mxCell>
        <mxCell id="xjBg1UHBpUE3JP_U8JyF-34" value="" style="endArrow=classic;html=1;rounded=0;exitX=0.5;exitY=1;exitDx=0;exitDy=0;entryX=0.5;entryY=0;entryDx=0;entryDy=0;" parent="1" source="xjBg1UHBpUE3JP_U8JyF-30" target="xjBg1UHBpUE3JP_U8JyF-31" edge="1">
          <mxGeometry width="50" height="50" relative="1" as="geometry">
            <mxPoint x="520" y="1500" as="sourcePoint" />
            <mxPoint x="570" y="1450" as="targetPoint" />
          </mxGeometry>
        </mxCell>
        <mxCell id="xjBg1UHBpUE3JP_U8JyF-35" value="" style="endArrow=classic;html=1;rounded=0;exitX=0.5;exitY=1;exitDx=0;exitDy=0;entryX=0.5;entryY=0;entryDx=0;entryDy=0;" parent="1" source="xjBg1UHBpUE3JP_U8JyF-30" target="xjBg1UHBpUE3JP_U8JyF-32" edge="1">
          <mxGeometry width="50" height="50" relative="1" as="geometry">
            <mxPoint x="520" y="1500" as="sourcePoint" />
            <mxPoint x="570" y="1450" as="targetPoint" />
          </mxGeometry>
        </mxCell>
        <mxCell id="xjBg1UHBpUE3JP_U8JyF-36" value="" style="endArrow=classic;html=1;rounded=0;exitX=0.5;exitY=1;exitDx=0;exitDy=0;entryX=0.5;entryY=0;entryDx=0;entryDy=0;" parent="1" source="xjBg1UHBpUE3JP_U8JyF-32" target="xjBg1UHBpUE3JP_U8JyF-33" edge="1">
          <mxGeometry width="50" height="50" relative="1" as="geometry">
            <mxPoint x="520" y="1500" as="sourcePoint" />
            <mxPoint x="570" y="1450" as="targetPoint" />
          </mxGeometry>
        </mxCell>
        <mxCell id="xjBg1UHBpUE3JP_U8JyF-37" value="" style="endArrow=classic;html=1;rounded=0;exitX=0.5;exitY=1;exitDx=0;exitDy=0;entryX=0.5;entryY=0;entryDx=0;entryDy=0;" parent="1" edge="1">
          <mxGeometry width="50" height="50" relative="1" as="geometry">
            <mxPoint x="459.58" y="1280" as="sourcePoint" />
            <mxPoint x="459.58" y="1320" as="targetPoint" />
          </mxGeometry>
        </mxCell>
        <mxCell id="xjBg1UHBpUE3JP_U8JyF-38" value="" style="endArrow=classic;html=1;rounded=0;exitX=0.5;exitY=1;exitDx=0;exitDy=0;entryX=0.5;entryY=0;entryDx=0;entryDy=0;" parent="1" edge="1">
          <mxGeometry width="50" height="50" relative="1" as="geometry">
            <mxPoint x="459.58" y="1360" as="sourcePoint" />
            <mxPoint x="459.58" y="1400" as="targetPoint" />
          </mxGeometry>
        </mxCell>
        <mxCell id="xjBg1UHBpUE3JP_U8JyF-39" value="" style="endArrow=classic;html=1;rounded=0;exitX=0.5;exitY=1;exitDx=0;exitDy=0;entryX=0.5;entryY=0;entryDx=0;entryDy=0;" parent="1" edge="1">
          <mxGeometry width="50" height="50" relative="1" as="geometry">
            <mxPoint x="459.58" y="1440" as="sourcePoint" />
            <mxPoint x="459.58" y="1480" as="targetPoint" />
          </mxGeometry>
        </mxCell>
        <mxCell id="xjBg1UHBpUE3JP_U8JyF-40" value="" style="endArrow=classic;html=1;rounded=0;exitX=0.5;exitY=1;exitDx=0;exitDy=0;entryX=0.5;entryY=0;entryDx=0;entryDy=0;" parent="1" edge="1">
          <mxGeometry width="50" height="50" relative="1" as="geometry">
            <mxPoint x="459.58000000000004" y="1520" as="sourcePoint" />
            <mxPoint x="459.58000000000004" y="1560" as="targetPoint" />
          </mxGeometry>
        </mxCell>
        <mxCell id="apyEuko5q-zg2WOOMlP8-1" value="S1" style="text;html=1;align=center;verticalAlign=middle;whiteSpace=wrap;rounded=0;" vertex="1" parent="1">
          <mxGeometry x="1160" y="80" width="40" height="40" as="geometry" />
        </mxCell>
        <mxCell id="apyEuko5q-zg2WOOMlP8-2" value="B8" style="text;html=1;align=center;verticalAlign=middle;whiteSpace=wrap;rounded=0;" vertex="1" parent="1">
          <mxGeometry x="1160" y="160" width="40" height="40" as="geometry" />
        </mxCell>
        <mxCell id="apyEuko5q-zg2WOOMlP8-3" value="a" style="text;html=1;align=center;verticalAlign=middle;whiteSpace=wrap;rounded=0;" vertex="1" parent="1">
          <mxGeometry x="1080" y="160" width="40" height="40" as="geometry" />
        </mxCell>
        <mxCell id="apyEuko5q-zg2WOOMlP8-4" value="A3" style="text;html=1;align=center;verticalAlign=middle;whiteSpace=wrap;rounded=0;" vertex="1" parent="1">
          <mxGeometry x="1000" y="160" width="40" height="40" as="geometry" />
        </mxCell>
        <mxCell id="apyEuko5q-zg2WOOMlP8-5" value="a" style="text;html=1;align=center;verticalAlign=middle;whiteSpace=wrap;rounded=0;" vertex="1" parent="1">
          <mxGeometry x="1240" y="160" width="40" height="40" as="geometry" />
        </mxCell>
        <mxCell id="apyEuko5q-zg2WOOMlP8-6" value="A3" style="text;html=1;align=center;verticalAlign=middle;whiteSpace=wrap;rounded=0;" vertex="1" parent="1">
          <mxGeometry x="1320" y="160" width="40" height="40" as="geometry" />
        </mxCell>
        <mxCell id="apyEuko5q-zg2WOOMlP8-7" value="B8" style="text;html=1;align=center;verticalAlign=middle;whiteSpace=wrap;rounded=0;" vertex="1" parent="1">
          <mxGeometry x="1000" y="240" width="40" height="40" as="geometry" />
        </mxCell>
        <mxCell id="apyEuko5q-zg2WOOMlP8-8" value="A5" style="text;html=1;align=center;verticalAlign=middle;whiteSpace=wrap;rounded=0;" vertex="1" parent="1">
          <mxGeometry x="1000" y="320" width="40" height="40" as="geometry" />
        </mxCell>
        <mxCell id="apyEuko5q-zg2WOOMlP8-9" value="a" style="text;html=1;align=center;verticalAlign=middle;whiteSpace=wrap;rounded=0;" vertex="1" parent="1">
          <mxGeometry x="1000" y="400" width="40" height="40" as="geometry" />
        </mxCell>
        <mxCell id="apyEuko5q-zg2WOOMlP8-10" value="" style="endArrow=classic;html=1;rounded=0;exitX=0.5;exitY=1;exitDx=0;exitDy=0;entryX=0.5;entryY=0;entryDx=0;entryDy=0;" edge="1" parent="1" source="apyEuko5q-zg2WOOMlP8-1" target="apyEuko5q-zg2WOOMlP8-2">
          <mxGeometry width="50" height="50" relative="1" as="geometry">
            <mxPoint x="1050" y="360" as="sourcePoint" />
            <mxPoint x="1100" y="310" as="targetPoint" />
          </mxGeometry>
        </mxCell>
        <mxCell id="apyEuko5q-zg2WOOMlP8-11" value="" style="endArrow=classic;html=1;rounded=0;entryX=0.5;entryY=0;entryDx=0;entryDy=0;" edge="1" parent="1" target="apyEuko5q-zg2WOOMlP8-3">
          <mxGeometry width="50" height="50" relative="1" as="geometry">
            <mxPoint x="1180" y="120" as="sourcePoint" />
            <mxPoint x="1270" y="160" as="targetPoint" />
          </mxGeometry>
        </mxCell>
        <mxCell id="apyEuko5q-zg2WOOMlP8-12" value="" style="endArrow=classic;html=1;rounded=0;exitX=0.5;exitY=1;exitDx=0;exitDy=0;entryX=0.5;entryY=0;entryDx=0;entryDy=0;" edge="1" parent="1" source="apyEuko5q-zg2WOOMlP8-1" target="apyEuko5q-zg2WOOMlP8-4">
          <mxGeometry width="50" height="50" relative="1" as="geometry">
            <mxPoint x="1190" y="270" as="sourcePoint" />
            <mxPoint x="1190" y="310" as="targetPoint" />
          </mxGeometry>
        </mxCell>
        <mxCell id="apyEuko5q-zg2WOOMlP8-13" value="" style="endArrow=classic;html=1;rounded=0;entryX=0.5;entryY=0;entryDx=0;entryDy=0;" edge="1" parent="1" target="apyEuko5q-zg2WOOMlP8-5">
          <mxGeometry width="50" height="50" relative="1" as="geometry">
            <mxPoint x="1180" y="120" as="sourcePoint" />
            <mxPoint x="1180" y="360" as="targetPoint" />
          </mxGeometry>
        </mxCell>
        <mxCell id="apyEuko5q-zg2WOOMlP8-14" value="" style="endArrow=classic;html=1;rounded=0;entryX=0.5;entryY=0;entryDx=0;entryDy=0;" edge="1" parent="1" target="apyEuko5q-zg2WOOMlP8-6">
          <mxGeometry width="50" height="50" relative="1" as="geometry">
            <mxPoint x="1180" y="120" as="sourcePoint" />
            <mxPoint x="1220" y="370" as="targetPoint" />
          </mxGeometry>
        </mxCell>
        <mxCell id="apyEuko5q-zg2WOOMlP8-15" value="" style="endArrow=classic;html=1;rounded=0;exitX=0.5;exitY=1;exitDx=0;exitDy=0;entryX=0.5;entryY=0;entryDx=0;entryDy=0;" edge="1" parent="1" source="apyEuko5q-zg2WOOMlP8-4" target="apyEuko5q-zg2WOOMlP8-7">
          <mxGeometry width="50" height="50" relative="1" as="geometry">
            <mxPoint x="1220" y="280" as="sourcePoint" />
            <mxPoint x="1220" y="320" as="targetPoint" />
          </mxGeometry>
        </mxCell>
        <mxCell id="apyEuko5q-zg2WOOMlP8-16" value="" style="endArrow=classic;html=1;rounded=0;exitX=0.5;exitY=1;exitDx=0;exitDy=0;entryX=0.5;entryY=0;entryDx=0;entryDy=0;" edge="1" parent="1" source="apyEuko5q-zg2WOOMlP8-7" target="apyEuko5q-zg2WOOMlP8-8">
          <mxGeometry width="50" height="50" relative="1" as="geometry">
            <mxPoint x="1100" y="360" as="sourcePoint" />
            <mxPoint x="1100" y="400" as="targetPoint" />
          </mxGeometry>
        </mxCell>
        <mxCell id="apyEuko5q-zg2WOOMlP8-17" value="" style="endArrow=classic;html=1;rounded=0;exitX=0.5;exitY=1;exitDx=0;exitDy=0;entryX=0.5;entryY=0;entryDx=0;entryDy=0;" edge="1" parent="1" source="apyEuko5q-zg2WOOMlP8-8" target="apyEuko5q-zg2WOOMlP8-9">
          <mxGeometry width="50" height="50" relative="1" as="geometry">
            <mxPoint x="1130" y="400" as="sourcePoint" />
            <mxPoint x="1130" y="440" as="targetPoint" />
          </mxGeometry>
        </mxCell>
        <mxCell id="apyEuko5q-zg2WOOMlP8-18" value="B8" style="text;html=1;align=center;verticalAlign=middle;whiteSpace=wrap;rounded=0;" vertex="1" parent="1">
          <mxGeometry x="1320" y="240" width="40" height="40" as="geometry" />
        </mxCell>
        <mxCell id="apyEuko5q-zg2WOOMlP8-19" value="A5" style="text;html=1;align=center;verticalAlign=middle;whiteSpace=wrap;rounded=0;" vertex="1" parent="1">
          <mxGeometry x="1320" y="320" width="40" height="40" as="geometry" />
        </mxCell>
        <mxCell id="apyEuko5q-zg2WOOMlP8-20" value="a" style="text;html=1;align=center;verticalAlign=middle;whiteSpace=wrap;rounded=0;" vertex="1" parent="1">
          <mxGeometry x="1320" y="400" width="40" height="40" as="geometry" />
        </mxCell>
        <mxCell id="apyEuko5q-zg2WOOMlP8-21" value="" style="endArrow=classic;html=1;rounded=0;exitX=0.5;exitY=1;exitDx=0;exitDy=0;entryX=0.5;entryY=0;entryDx=0;entryDy=0;" edge="1" parent="1" target="apyEuko5q-zg2WOOMlP8-18">
          <mxGeometry width="50" height="50" relative="1" as="geometry">
            <mxPoint x="1340" y="200" as="sourcePoint" />
            <mxPoint x="1540" y="320" as="targetPoint" />
          </mxGeometry>
        </mxCell>
        <mxCell id="apyEuko5q-zg2WOOMlP8-22" value="" style="endArrow=classic;html=1;rounded=0;exitX=0.5;exitY=1;exitDx=0;exitDy=0;entryX=0.5;entryY=0;entryDx=0;entryDy=0;" edge="1" parent="1" source="apyEuko5q-zg2WOOMlP8-18" target="apyEuko5q-zg2WOOMlP8-19">
          <mxGeometry width="50" height="50" relative="1" as="geometry">
            <mxPoint x="1420" y="360" as="sourcePoint" />
            <mxPoint x="1420" y="400" as="targetPoint" />
          </mxGeometry>
        </mxCell>
        <mxCell id="apyEuko5q-zg2WOOMlP8-23" value="" style="endArrow=classic;html=1;rounded=0;exitX=0.5;exitY=1;exitDx=0;exitDy=0;entryX=0.5;entryY=0;entryDx=0;entryDy=0;" edge="1" parent="1" source="apyEuko5q-zg2WOOMlP8-19" target="apyEuko5q-zg2WOOMlP8-20">
          <mxGeometry width="50" height="50" relative="1" as="geometry">
            <mxPoint x="1450" y="400" as="sourcePoint" />
            <mxPoint x="1450" y="440" as="targetPoint" />
          </mxGeometry>
        </mxCell>
        <mxCell id="apyEuko5q-zg2WOOMlP8-24" value="A3" style="text;html=1;align=center;verticalAlign=middle;whiteSpace=wrap;rounded=0;" vertex="1" parent="1">
          <mxGeometry x="1160" y="240" width="40" height="40" as="geometry" />
        </mxCell>
        <mxCell id="apyEuko5q-zg2WOOMlP8-25" value="B8" style="text;html=1;align=center;verticalAlign=middle;whiteSpace=wrap;rounded=0;" vertex="1" parent="1">
          <mxGeometry x="1160" y="320" width="40" height="40" as="geometry" />
        </mxCell>
        <mxCell id="apyEuko5q-zg2WOOMlP8-26" value="A5" style="text;html=1;align=center;verticalAlign=middle;whiteSpace=wrap;rounded=0;" vertex="1" parent="1">
          <mxGeometry x="1160" y="400" width="40" height="40" as="geometry" />
        </mxCell>
        <mxCell id="apyEuko5q-zg2WOOMlP8-27" value="a" style="text;html=1;align=center;verticalAlign=middle;whiteSpace=wrap;rounded=0;" vertex="1" parent="1">
          <mxGeometry x="1160" y="480" width="40" height="40" as="geometry" />
        </mxCell>
        <mxCell id="apyEuko5q-zg2WOOMlP8-28" value="" style="endArrow=classic;html=1;rounded=0;exitX=0.5;exitY=1;exitDx=0;exitDy=0;entryX=0.5;entryY=0;entryDx=0;entryDy=0;" edge="1" parent="1" source="apyEuko5q-zg2WOOMlP8-24" target="apyEuko5q-zg2WOOMlP8-25">
          <mxGeometry width="50" height="50" relative="1" as="geometry">
            <mxPoint x="1380" y="360" as="sourcePoint" />
            <mxPoint x="1380" y="400" as="targetPoint" />
          </mxGeometry>
        </mxCell>
        <mxCell id="apyEuko5q-zg2WOOMlP8-29" value="" style="endArrow=classic;html=1;rounded=0;exitX=0.5;exitY=1;exitDx=0;exitDy=0;entryX=0.5;entryY=0;entryDx=0;entryDy=0;" edge="1" parent="1" source="apyEuko5q-zg2WOOMlP8-25" target="apyEuko5q-zg2WOOMlP8-26">
          <mxGeometry width="50" height="50" relative="1" as="geometry">
            <mxPoint x="1260" y="440" as="sourcePoint" />
            <mxPoint x="1260" y="480" as="targetPoint" />
          </mxGeometry>
        </mxCell>
        <mxCell id="apyEuko5q-zg2WOOMlP8-30" value="" style="endArrow=classic;html=1;rounded=0;exitX=0.5;exitY=1;exitDx=0;exitDy=0;entryX=0.5;entryY=0;entryDx=0;entryDy=0;" edge="1" parent="1" source="apyEuko5q-zg2WOOMlP8-26" target="apyEuko5q-zg2WOOMlP8-27">
          <mxGeometry width="50" height="50" relative="1" as="geometry">
            <mxPoint x="1290" y="480" as="sourcePoint" />
            <mxPoint x="1290" y="520" as="targetPoint" />
          </mxGeometry>
        </mxCell>
        <mxCell id="apyEuko5q-zg2WOOMlP8-31" value="" style="endArrow=classic;html=1;rounded=0;exitX=0.5;exitY=1;exitDx=0;exitDy=0;entryX=0.5;entryY=0;entryDx=0;entryDy=0;" edge="1" parent="1">
          <mxGeometry width="50" height="50" relative="1" as="geometry">
            <mxPoint x="1179.66" y="200" as="sourcePoint" />
            <mxPoint x="1179.66" y="240" as="targetPoint" />
          </mxGeometry>
        </mxCell>
        <mxCell id="apyEuko5q-zg2WOOMlP8-32" value="S2" style="text;html=1;align=center;verticalAlign=middle;whiteSpace=wrap;rounded=0;" vertex="1" parent="1">
          <mxGeometry x="1160" y="600" width="40" height="40" as="geometry" />
        </mxCell>
        <mxCell id="apyEuko5q-zg2WOOMlP8-33" value="S2" style="text;html=1;align=center;verticalAlign=middle;whiteSpace=wrap;rounded=0;" vertex="1" parent="1">
          <mxGeometry x="1160" y="680" width="40" height="40" as="geometry" />
        </mxCell>
        <mxCell id="apyEuko5q-zg2WOOMlP8-34" value="b" style="text;html=1;align=center;verticalAlign=middle;whiteSpace=wrap;rounded=0;" vertex="1" parent="1">
          <mxGeometry x="1080" y="680" width="40" height="40" as="geometry" />
        </mxCell>
        <mxCell id="apyEuko5q-zg2WOOMlP8-35" value="b" style="text;html=1;align=center;verticalAlign=middle;whiteSpace=wrap;rounded=0;" vertex="1" parent="1">
          <mxGeometry x="1240" y="680" width="40" height="40" as="geometry" />
        </mxCell>
        <mxCell id="apyEuko5q-zg2WOOMlP8-37" value="" style="endArrow=classic;html=1;rounded=0;exitX=0.5;exitY=1;exitDx=0;exitDy=0;entryX=0.5;entryY=0;entryDx=0;entryDy=0;" edge="1" parent="1">
          <mxGeometry width="50" height="50" relative="1" as="geometry">
            <mxPoint x="1179.66" y="640" as="sourcePoint" />
            <mxPoint x="1179.66" y="680" as="targetPoint" />
          </mxGeometry>
        </mxCell>
        <mxCell id="apyEuko5q-zg2WOOMlP8-38" value="" style="endArrow=classic;html=1;rounded=0;exitX=0.5;exitY=1;exitDx=0;exitDy=0;entryX=0.5;entryY=0;entryDx=0;entryDy=0;" edge="1" parent="1" source="apyEuko5q-zg2WOOMlP8-32" target="apyEuko5q-zg2WOOMlP8-34">
          <mxGeometry width="50" height="50" relative="1" as="geometry">
            <mxPoint x="1210" y="800" as="sourcePoint" />
            <mxPoint x="1210" y="840" as="targetPoint" />
          </mxGeometry>
        </mxCell>
        <mxCell id="apyEuko5q-zg2WOOMlP8-39" value="" style="endArrow=classic;html=1;rounded=0;exitX=0.5;exitY=1;exitDx=0;exitDy=0;entryX=0.5;entryY=0;entryDx=0;entryDy=0;" edge="1" parent="1" source="apyEuko5q-zg2WOOMlP8-32" target="apyEuko5q-zg2WOOMlP8-35">
          <mxGeometry width="50" height="50" relative="1" as="geometry">
            <mxPoint x="1180" y="820" as="sourcePoint" />
            <mxPoint x="1180" y="860" as="targetPoint" />
          </mxGeometry>
        </mxCell>
        <mxCell id="apyEuko5q-zg2WOOMlP8-40" value="S2" style="text;html=1;align=center;verticalAlign=middle;whiteSpace=wrap;rounded=0;" vertex="1" parent="1">
          <mxGeometry x="1160" y="760" width="40" height="40" as="geometry" />
        </mxCell>
        <mxCell id="apyEuko5q-zg2WOOMlP8-41" value="b" style="text;html=1;align=center;verticalAlign=middle;whiteSpace=wrap;rounded=0;" vertex="1" parent="1">
          <mxGeometry x="1080" y="760" width="40" height="40" as="geometry" />
        </mxCell>
        <mxCell id="apyEuko5q-zg2WOOMlP8-42" value="b" style="text;html=1;align=center;verticalAlign=middle;whiteSpace=wrap;rounded=0;" vertex="1" parent="1">
          <mxGeometry x="1240" y="760" width="40" height="40" as="geometry" />
        </mxCell>
        <mxCell id="apyEuko5q-zg2WOOMlP8-43" value="" style="endArrow=classic;html=1;rounded=0;exitX=0.5;exitY=1;exitDx=0;exitDy=0;entryX=0.5;entryY=0;entryDx=0;entryDy=0;" edge="1" parent="1">
          <mxGeometry width="50" height="50" relative="1" as="geometry">
            <mxPoint x="1179.66" y="720" as="sourcePoint" />
            <mxPoint x="1179.66" y="760" as="targetPoint" />
          </mxGeometry>
        </mxCell>
        <mxCell id="apyEuko5q-zg2WOOMlP8-44" value="" style="endArrow=classic;html=1;rounded=0;exitX=0.5;exitY=1;exitDx=0;exitDy=0;entryX=0.5;entryY=0;entryDx=0;entryDy=0;" edge="1" parent="1" target="apyEuko5q-zg2WOOMlP8-41">
          <mxGeometry width="50" height="50" relative="1" as="geometry">
            <mxPoint x="1180" y="720" as="sourcePoint" />
            <mxPoint x="1210" y="920" as="targetPoint" />
          </mxGeometry>
        </mxCell>
        <mxCell id="apyEuko5q-zg2WOOMlP8-45" value="" style="endArrow=classic;html=1;rounded=0;exitX=0.5;exitY=1;exitDx=0;exitDy=0;entryX=0.5;entryY=0;entryDx=0;entryDy=0;" edge="1" parent="1" target="apyEuko5q-zg2WOOMlP8-42">
          <mxGeometry width="50" height="50" relative="1" as="geometry">
            <mxPoint x="1180" y="720" as="sourcePoint" />
            <mxPoint x="1180" y="940" as="targetPoint" />
          </mxGeometry>
        </mxCell>
        <mxCell id="apyEuko5q-zg2WOOMlP8-46" value="S2" style="text;html=1;align=center;verticalAlign=middle;whiteSpace=wrap;rounded=0;" vertex="1" parent="1">
          <mxGeometry x="1160" y="840" width="40" height="40" as="geometry" />
        </mxCell>
        <mxCell id="apyEuko5q-zg2WOOMlP8-47" value="b" style="text;html=1;align=center;verticalAlign=middle;whiteSpace=wrap;rounded=0;" vertex="1" parent="1">
          <mxGeometry x="1080" y="840" width="40" height="40" as="geometry" />
        </mxCell>
        <mxCell id="apyEuko5q-zg2WOOMlP8-48" value="b" style="text;html=1;align=center;verticalAlign=middle;whiteSpace=wrap;rounded=0;" vertex="1" parent="1">
          <mxGeometry x="1240" y="840" width="40" height="40" as="geometry" />
        </mxCell>
        <mxCell id="apyEuko5q-zg2WOOMlP8-49" value="" style="endArrow=classic;html=1;rounded=0;exitX=0.5;exitY=1;exitDx=0;exitDy=0;entryX=0.5;entryY=0;entryDx=0;entryDy=0;" edge="1" parent="1">
          <mxGeometry width="50" height="50" relative="1" as="geometry">
            <mxPoint x="1179.66" y="800" as="sourcePoint" />
            <mxPoint x="1179.66" y="840" as="targetPoint" />
          </mxGeometry>
        </mxCell>
        <mxCell id="apyEuko5q-zg2WOOMlP8-50" value="" style="endArrow=classic;html=1;rounded=0;exitX=0.5;exitY=1;exitDx=0;exitDy=0;entryX=0.5;entryY=0;entryDx=0;entryDy=0;" edge="1" parent="1" target="apyEuko5q-zg2WOOMlP8-47">
          <mxGeometry width="50" height="50" relative="1" as="geometry">
            <mxPoint x="1180" y="800" as="sourcePoint" />
            <mxPoint x="1210" y="1000" as="targetPoint" />
          </mxGeometry>
        </mxCell>
        <mxCell id="apyEuko5q-zg2WOOMlP8-51" value="" style="endArrow=classic;html=1;rounded=0;exitX=0.5;exitY=1;exitDx=0;exitDy=0;entryX=0.5;entryY=0;entryDx=0;entryDy=0;" edge="1" parent="1" target="apyEuko5q-zg2WOOMlP8-48">
          <mxGeometry width="50" height="50" relative="1" as="geometry">
            <mxPoint x="1180" y="800" as="sourcePoint" />
            <mxPoint x="1180" y="1020" as="targetPoint" />
          </mxGeometry>
        </mxCell>
        <mxCell id="apyEuko5q-zg2WOOMlP8-52" value="S1" style="text;html=1;align=center;verticalAlign=middle;whiteSpace=wrap;rounded=0;" vertex="1" parent="1">
          <mxGeometry x="1160" y="920" width="40" height="40" as="geometry" />
        </mxCell>
        <mxCell id="apyEuko5q-zg2WOOMlP8-53" value="b" style="text;html=1;align=center;verticalAlign=middle;whiteSpace=wrap;rounded=0;" vertex="1" parent="1">
          <mxGeometry x="1080" y="920" width="40" height="40" as="geometry" />
        </mxCell>
        <mxCell id="apyEuko5q-zg2WOOMlP8-54" value="b" style="text;html=1;align=center;verticalAlign=middle;whiteSpace=wrap;rounded=0;" vertex="1" parent="1">
          <mxGeometry x="1240" y="920" width="40" height="40" as="geometry" />
        </mxCell>
        <mxCell id="apyEuko5q-zg2WOOMlP8-55" value="" style="endArrow=classic;html=1;rounded=0;exitX=0.5;exitY=1;exitDx=0;exitDy=0;entryX=0.5;entryY=0;entryDx=0;entryDy=0;" edge="1" parent="1">
          <mxGeometry width="50" height="50" relative="1" as="geometry">
            <mxPoint x="1179.66" y="880" as="sourcePoint" />
            <mxPoint x="1179.66" y="920" as="targetPoint" />
          </mxGeometry>
        </mxCell>
        <mxCell id="apyEuko5q-zg2WOOMlP8-56" value="" style="endArrow=classic;html=1;rounded=0;exitX=0.5;exitY=1;exitDx=0;exitDy=0;entryX=0.5;entryY=0;entryDx=0;entryDy=0;" edge="1" parent="1" target="apyEuko5q-zg2WOOMlP8-53">
          <mxGeometry width="50" height="50" relative="1" as="geometry">
            <mxPoint x="1180" y="880" as="sourcePoint" />
            <mxPoint x="1210" y="1080" as="targetPoint" />
          </mxGeometry>
        </mxCell>
        <mxCell id="apyEuko5q-zg2WOOMlP8-57" value="" style="endArrow=classic;html=1;rounded=0;exitX=0.5;exitY=1;exitDx=0;exitDy=0;entryX=0.5;entryY=0;entryDx=0;entryDy=0;" edge="1" parent="1" target="apyEuko5q-zg2WOOMlP8-54">
          <mxGeometry width="50" height="50" relative="1" as="geometry">
            <mxPoint x="1180" y="880" as="sourcePoint" />
            <mxPoint x="1180" y="1100" as="targetPoint" />
          </mxGeometry>
        </mxCell>
        <mxCell id="apyEuko5q-zg2WOOMlP8-58" value="B8" style="text;html=1;align=center;verticalAlign=middle;whiteSpace=wrap;rounded=0;" vertex="1" parent="1">
          <mxGeometry x="1160" y="1000" width="40" height="40" as="geometry" />
        </mxCell>
        <mxCell id="apyEuko5q-zg2WOOMlP8-59" value="b" style="text;html=1;align=center;verticalAlign=middle;whiteSpace=wrap;rounded=0;" vertex="1" parent="1">
          <mxGeometry x="1080" y="1000" width="40" height="40" as="geometry" />
        </mxCell>
        <mxCell id="apyEuko5q-zg2WOOMlP8-60" value="b" style="text;html=1;align=center;verticalAlign=middle;whiteSpace=wrap;rounded=0;" vertex="1" parent="1">
          <mxGeometry x="1240" y="1000" width="40" height="40" as="geometry" />
        </mxCell>
        <mxCell id="apyEuko5q-zg2WOOMlP8-61" value="" style="endArrow=classic;html=1;rounded=0;exitX=0.5;exitY=1;exitDx=0;exitDy=0;entryX=0.5;entryY=0;entryDx=0;entryDy=0;" edge="1" parent="1">
          <mxGeometry width="50" height="50" relative="1" as="geometry">
            <mxPoint x="1179.66" y="960" as="sourcePoint" />
            <mxPoint x="1179.66" y="1000" as="targetPoint" />
          </mxGeometry>
        </mxCell>
        <mxCell id="apyEuko5q-zg2WOOMlP8-62" value="" style="endArrow=classic;html=1;rounded=0;exitX=0.5;exitY=1;exitDx=0;exitDy=0;entryX=0.5;entryY=0;entryDx=0;entryDy=0;" edge="1" parent="1" target="apyEuko5q-zg2WOOMlP8-59">
          <mxGeometry width="50" height="50" relative="1" as="geometry">
            <mxPoint x="1180" y="960" as="sourcePoint" />
            <mxPoint x="1210" y="1160" as="targetPoint" />
          </mxGeometry>
        </mxCell>
        <mxCell id="apyEuko5q-zg2WOOMlP8-63" value="" style="endArrow=classic;html=1;rounded=0;exitX=0.5;exitY=1;exitDx=0;exitDy=0;entryX=0.5;entryY=0;entryDx=0;entryDy=0;" edge="1" parent="1" target="apyEuko5q-zg2WOOMlP8-60">
          <mxGeometry width="50" height="50" relative="1" as="geometry">
            <mxPoint x="1180" y="960" as="sourcePoint" />
            <mxPoint x="1180" y="1180" as="targetPoint" />
          </mxGeometry>
        </mxCell>
        <mxCell id="apyEuko5q-zg2WOOMlP8-64" value="A5" style="text;html=1;align=center;verticalAlign=middle;whiteSpace=wrap;rounded=0;" vertex="1" parent="1">
          <mxGeometry x="1000" y="1000" width="40" height="40" as="geometry" />
        </mxCell>
        <mxCell id="apyEuko5q-zg2WOOMlP8-65" value="A5" style="text;html=1;align=center;verticalAlign=middle;whiteSpace=wrap;rounded=0;" vertex="1" parent="1">
          <mxGeometry x="1320" y="1000" width="40" height="40" as="geometry" />
        </mxCell>
        <mxCell id="apyEuko5q-zg2WOOMlP8-66" value="" style="endArrow=classic;html=1;rounded=0;entryX=0.5;entryY=0;entryDx=0;entryDy=0;" edge="1" parent="1" target="apyEuko5q-zg2WOOMlP8-64">
          <mxGeometry width="50" height="50" relative="1" as="geometry">
            <mxPoint x="1180" y="960" as="sourcePoint" />
            <mxPoint x="1180" y="1160" as="targetPoint" />
          </mxGeometry>
        </mxCell>
        <mxCell id="apyEuko5q-zg2WOOMlP8-67" value="" style="endArrow=classic;html=1;rounded=0;exitX=0.5;exitY=1;exitDx=0;exitDy=0;entryX=0.5;entryY=0;entryDx=0;entryDy=0;" edge="1" parent="1" source="apyEuko5q-zg2WOOMlP8-52" target="apyEuko5q-zg2WOOMlP8-65">
          <mxGeometry width="50" height="50" relative="1" as="geometry">
            <mxPoint x="1160" y="1080" as="sourcePoint" />
            <mxPoint x="1160" y="1120" as="targetPoint" />
          </mxGeometry>
        </mxCell>
        <mxCell id="apyEuko5q-zg2WOOMlP8-68" value="a" style="text;html=1;align=center;verticalAlign=middle;whiteSpace=wrap;rounded=0;" vertex="1" parent="1">
          <mxGeometry x="1000" y="1080" width="40" height="40" as="geometry" />
        </mxCell>
        <mxCell id="apyEuko5q-zg2WOOMlP8-69" value="a" style="text;html=1;align=center;verticalAlign=middle;whiteSpace=wrap;rounded=0;" vertex="1" parent="1">
          <mxGeometry x="1320" y="1080" width="40" height="40" as="geometry" />
        </mxCell>
        <mxCell id="apyEuko5q-zg2WOOMlP8-70" value="A6" style="text;html=1;align=center;verticalAlign=middle;whiteSpace=wrap;rounded=0;" vertex="1" parent="1">
          <mxGeometry x="1160" y="1080" width="40" height="40" as="geometry" />
        </mxCell>
        <mxCell id="apyEuko5q-zg2WOOMlP8-72" value="" style="endArrow=classic;html=1;rounded=0;exitX=0.5;exitY=1;exitDx=0;exitDy=0;entryX=0.5;entryY=0;entryDx=0;entryDy=0;" edge="1" parent="1" source="apyEuko5q-zg2WOOMlP8-58" target="apyEuko5q-zg2WOOMlP8-70">
          <mxGeometry width="50" height="50" relative="1" as="geometry">
            <mxPoint x="1240" y="1080" as="sourcePoint" />
            <mxPoint x="1240" y="1120" as="targetPoint" />
          </mxGeometry>
        </mxCell>
        <mxCell id="apyEuko5q-zg2WOOMlP8-73" value="" style="endArrow=classic;html=1;rounded=0;exitX=0.5;exitY=1;exitDx=0;exitDy=0;entryX=0.5;entryY=0;entryDx=0;entryDy=0;" edge="1" parent="1" source="apyEuko5q-zg2WOOMlP8-64" target="apyEuko5q-zg2WOOMlP8-68">
          <mxGeometry width="50" height="50" relative="1" as="geometry">
            <mxPoint x="1030" y="1190" as="sourcePoint" />
            <mxPoint x="1030" y="1230" as="targetPoint" />
          </mxGeometry>
        </mxCell>
        <mxCell id="apyEuko5q-zg2WOOMlP8-74" value="" style="endArrow=classic;html=1;rounded=0;exitX=0.5;exitY=1;exitDx=0;exitDy=0;entryX=0.5;entryY=0;entryDx=0;entryDy=0;" edge="1" parent="1" source="apyEuko5q-zg2WOOMlP8-65" target="apyEuko5q-zg2WOOMlP8-69">
          <mxGeometry width="50" height="50" relative="1" as="geometry">
            <mxPoint x="1080" y="1180" as="sourcePoint" />
            <mxPoint x="1080" y="1220" as="targetPoint" />
          </mxGeometry>
        </mxCell>
        <mxCell id="apyEuko5q-zg2WOOMlP8-75" value="" style="endArrow=classic;html=1;rounded=0;exitX=0.5;exitY=1;exitDx=0;exitDy=0;entryX=0.5;entryY=0;entryDx=0;entryDy=0;" edge="1" parent="1">
          <mxGeometry width="50" height="50" relative="1" as="geometry">
            <mxPoint x="1179.66" y="1120" as="sourcePoint" />
            <mxPoint x="1179.66" y="1160" as="targetPoint" />
          </mxGeometry>
        </mxCell>
        <mxCell id="apyEuko5q-zg2WOOMlP8-76" value="&lt;span data-huuid=&quot;2484743575016273961&quot;&gt;ε&lt;/span&gt;" style="text;html=1;align=center;verticalAlign=middle;whiteSpace=wrap;rounded=0;" vertex="1" parent="1">
          <mxGeometry x="1160" y="1160" width="40" height="40" as="geometry" />
        </mxCell>
        <mxCell id="apyEuko5q-zg2WOOMlP8-77" value="S2" style="text;html=1;align=center;verticalAlign=middle;whiteSpace=wrap;rounded=0;" vertex="1" parent="1">
          <mxGeometry x="1160" y="1280" width="40" height="40" as="geometry" />
        </mxCell>
        <mxCell id="apyEuko5q-zg2WOOMlP8-78" value="S2" style="text;html=1;align=center;verticalAlign=middle;whiteSpace=wrap;rounded=0;" vertex="1" parent="1">
          <mxGeometry x="1160" y="1360" width="40" height="40" as="geometry" />
        </mxCell>
        <mxCell id="apyEuko5q-zg2WOOMlP8-79" value="b" style="text;html=1;align=center;verticalAlign=middle;whiteSpace=wrap;rounded=0;" vertex="1" parent="1">
          <mxGeometry x="1080" y="1360" width="40" height="40" as="geometry" />
        </mxCell>
        <mxCell id="apyEuko5q-zg2WOOMlP8-80" value="b" style="text;html=1;align=center;verticalAlign=middle;whiteSpace=wrap;rounded=0;" vertex="1" parent="1">
          <mxGeometry x="1240" y="1360" width="40" height="40" as="geometry" />
        </mxCell>
        <mxCell id="apyEuko5q-zg2WOOMlP8-81" value="" style="endArrow=classic;html=1;rounded=0;exitX=0.5;exitY=1;exitDx=0;exitDy=0;entryX=0.5;entryY=0;entryDx=0;entryDy=0;" edge="1" parent="1">
          <mxGeometry width="50" height="50" relative="1" as="geometry">
            <mxPoint x="1179.66" y="1320" as="sourcePoint" />
            <mxPoint x="1179.66" y="1360" as="targetPoint" />
          </mxGeometry>
        </mxCell>
        <mxCell id="apyEuko5q-zg2WOOMlP8-82" value="" style="endArrow=classic;html=1;rounded=0;exitX=0.5;exitY=1;exitDx=0;exitDy=0;entryX=0.5;entryY=0;entryDx=0;entryDy=0;" edge="1" parent="1" source="apyEuko5q-zg2WOOMlP8-77" target="apyEuko5q-zg2WOOMlP8-79">
          <mxGeometry width="50" height="50" relative="1" as="geometry">
            <mxPoint x="1210" y="1480" as="sourcePoint" />
            <mxPoint x="1210" y="1520" as="targetPoint" />
          </mxGeometry>
        </mxCell>
        <mxCell id="apyEuko5q-zg2WOOMlP8-83" value="" style="endArrow=classic;html=1;rounded=0;exitX=0.5;exitY=1;exitDx=0;exitDy=0;entryX=0.5;entryY=0;entryDx=0;entryDy=0;" edge="1" parent="1" source="apyEuko5q-zg2WOOMlP8-77" target="apyEuko5q-zg2WOOMlP8-80">
          <mxGeometry width="50" height="50" relative="1" as="geometry">
            <mxPoint x="1180" y="1500" as="sourcePoint" />
            <mxPoint x="1180" y="1540" as="targetPoint" />
          </mxGeometry>
        </mxCell>
        <mxCell id="apyEuko5q-zg2WOOMlP8-84" value="S2" style="text;html=1;align=center;verticalAlign=middle;whiteSpace=wrap;rounded=0;" vertex="1" parent="1">
          <mxGeometry x="1160" y="1440" width="40" height="40" as="geometry" />
        </mxCell>
        <mxCell id="apyEuko5q-zg2WOOMlP8-85" value="b" style="text;html=1;align=center;verticalAlign=middle;whiteSpace=wrap;rounded=0;" vertex="1" parent="1">
          <mxGeometry x="1080" y="1440" width="40" height="40" as="geometry" />
        </mxCell>
        <mxCell id="apyEuko5q-zg2WOOMlP8-86" value="b" style="text;html=1;align=center;verticalAlign=middle;whiteSpace=wrap;rounded=0;" vertex="1" parent="1">
          <mxGeometry x="1240" y="1440" width="40" height="40" as="geometry" />
        </mxCell>
        <mxCell id="apyEuko5q-zg2WOOMlP8-87" value="" style="endArrow=classic;html=1;rounded=0;exitX=0.5;exitY=1;exitDx=0;exitDy=0;entryX=0.5;entryY=0;entryDx=0;entryDy=0;" edge="1" parent="1">
          <mxGeometry width="50" height="50" relative="1" as="geometry">
            <mxPoint x="1179.66" y="1400" as="sourcePoint" />
            <mxPoint x="1179.66" y="1440" as="targetPoint" />
          </mxGeometry>
        </mxCell>
        <mxCell id="apyEuko5q-zg2WOOMlP8-88" value="" style="endArrow=classic;html=1;rounded=0;exitX=0.5;exitY=1;exitDx=0;exitDy=0;entryX=0.5;entryY=0;entryDx=0;entryDy=0;" edge="1" parent="1" target="apyEuko5q-zg2WOOMlP8-85">
          <mxGeometry width="50" height="50" relative="1" as="geometry">
            <mxPoint x="1180" y="1400" as="sourcePoint" />
            <mxPoint x="1210" y="1600" as="targetPoint" />
          </mxGeometry>
        </mxCell>
        <mxCell id="apyEuko5q-zg2WOOMlP8-89" value="" style="endArrow=classic;html=1;rounded=0;exitX=0.5;exitY=1;exitDx=0;exitDy=0;entryX=0.5;entryY=0;entryDx=0;entryDy=0;" edge="1" parent="1" target="apyEuko5q-zg2WOOMlP8-86">
          <mxGeometry width="50" height="50" relative="1" as="geometry">
            <mxPoint x="1180" y="1400" as="sourcePoint" />
            <mxPoint x="1180" y="1620" as="targetPoint" />
          </mxGeometry>
        </mxCell>
        <mxCell id="apyEuko5q-zg2WOOMlP8-90" value="S2" style="text;html=1;align=center;verticalAlign=middle;whiteSpace=wrap;rounded=0;" vertex="1" parent="1">
          <mxGeometry x="1160" y="1520" width="40" height="40" as="geometry" />
        </mxCell>
        <mxCell id="apyEuko5q-zg2WOOMlP8-91" value="b" style="text;html=1;align=center;verticalAlign=middle;whiteSpace=wrap;rounded=0;" vertex="1" parent="1">
          <mxGeometry x="1080" y="1520" width="40" height="40" as="geometry" />
        </mxCell>
        <mxCell id="apyEuko5q-zg2WOOMlP8-92" value="b" style="text;html=1;align=center;verticalAlign=middle;whiteSpace=wrap;rounded=0;" vertex="1" parent="1">
          <mxGeometry x="1240" y="1520" width="40" height="40" as="geometry" />
        </mxCell>
        <mxCell id="apyEuko5q-zg2WOOMlP8-93" value="" style="endArrow=classic;html=1;rounded=0;exitX=0.5;exitY=1;exitDx=0;exitDy=0;entryX=0.5;entryY=0;entryDx=0;entryDy=0;" edge="1" parent="1">
          <mxGeometry width="50" height="50" relative="1" as="geometry">
            <mxPoint x="1179.66" y="1480" as="sourcePoint" />
            <mxPoint x="1179.66" y="1520" as="targetPoint" />
          </mxGeometry>
        </mxCell>
        <mxCell id="apyEuko5q-zg2WOOMlP8-94" value="" style="endArrow=classic;html=1;rounded=0;exitX=0.5;exitY=1;exitDx=0;exitDy=0;entryX=0.5;entryY=0;entryDx=0;entryDy=0;" edge="1" parent="1" target="apyEuko5q-zg2WOOMlP8-91">
          <mxGeometry width="50" height="50" relative="1" as="geometry">
            <mxPoint x="1180" y="1480" as="sourcePoint" />
            <mxPoint x="1210" y="1680" as="targetPoint" />
          </mxGeometry>
        </mxCell>
        <mxCell id="apyEuko5q-zg2WOOMlP8-95" value="" style="endArrow=classic;html=1;rounded=0;exitX=0.5;exitY=1;exitDx=0;exitDy=0;entryX=0.5;entryY=0;entryDx=0;entryDy=0;" edge="1" parent="1" target="apyEuko5q-zg2WOOMlP8-92">
          <mxGeometry width="50" height="50" relative="1" as="geometry">
            <mxPoint x="1180" y="1480" as="sourcePoint" />
            <mxPoint x="1180" y="1700" as="targetPoint" />
          </mxGeometry>
        </mxCell>
        <mxCell id="apyEuko5q-zg2WOOMlP8-96" value="S1" style="text;html=1;align=center;verticalAlign=middle;whiteSpace=wrap;rounded=0;" vertex="1" parent="1">
          <mxGeometry x="1160" y="1600" width="40" height="40" as="geometry" />
        </mxCell>
        <mxCell id="apyEuko5q-zg2WOOMlP8-97" value="b" style="text;html=1;align=center;verticalAlign=middle;whiteSpace=wrap;rounded=0;" vertex="1" parent="1">
          <mxGeometry x="1080" y="1600" width="40" height="40" as="geometry" />
        </mxCell>
        <mxCell id="apyEuko5q-zg2WOOMlP8-98" value="b" style="text;html=1;align=center;verticalAlign=middle;whiteSpace=wrap;rounded=0;" vertex="1" parent="1">
          <mxGeometry x="1240" y="1600" width="40" height="40" as="geometry" />
        </mxCell>
        <mxCell id="apyEuko5q-zg2WOOMlP8-99" value="" style="endArrow=classic;html=1;rounded=0;exitX=0.5;exitY=1;exitDx=0;exitDy=0;entryX=0.5;entryY=0;entryDx=0;entryDy=0;" edge="1" parent="1">
          <mxGeometry width="50" height="50" relative="1" as="geometry">
            <mxPoint x="1179.66" y="1560" as="sourcePoint" />
            <mxPoint x="1179.66" y="1600" as="targetPoint" />
          </mxGeometry>
        </mxCell>
        <mxCell id="apyEuko5q-zg2WOOMlP8-100" value="" style="endArrow=classic;html=1;rounded=0;exitX=0.5;exitY=1;exitDx=0;exitDy=0;entryX=0.5;entryY=0;entryDx=0;entryDy=0;" edge="1" parent="1" target="apyEuko5q-zg2WOOMlP8-97">
          <mxGeometry width="50" height="50" relative="1" as="geometry">
            <mxPoint x="1180" y="1560" as="sourcePoint" />
            <mxPoint x="1210" y="1760" as="targetPoint" />
          </mxGeometry>
        </mxCell>
        <mxCell id="apyEuko5q-zg2WOOMlP8-101" value="" style="endArrow=classic;html=1;rounded=0;exitX=0.5;exitY=1;exitDx=0;exitDy=0;entryX=0.5;entryY=0;entryDx=0;entryDy=0;" edge="1" parent="1" target="apyEuko5q-zg2WOOMlP8-98">
          <mxGeometry width="50" height="50" relative="1" as="geometry">
            <mxPoint x="1180" y="1560" as="sourcePoint" />
            <mxPoint x="1180" y="1780" as="targetPoint" />
          </mxGeometry>
        </mxCell>
        <mxCell id="apyEuko5q-zg2WOOMlP8-102" value="B8" style="text;html=1;align=center;verticalAlign=middle;whiteSpace=wrap;rounded=0;" vertex="1" parent="1">
          <mxGeometry x="1160" y="1680" width="40" height="40" as="geometry" />
        </mxCell>
        <mxCell id="apyEuko5q-zg2WOOMlP8-103" value="a" style="text;html=1;align=center;verticalAlign=middle;whiteSpace=wrap;rounded=0;" vertex="1" parent="1">
          <mxGeometry x="1080" y="1680" width="40" height="40" as="geometry" />
        </mxCell>
        <mxCell id="apyEuko5q-zg2WOOMlP8-104" value="a" style="text;html=1;align=center;verticalAlign=middle;whiteSpace=wrap;rounded=0;" vertex="1" parent="1">
          <mxGeometry x="1240" y="1680" width="40" height="40" as="geometry" />
        </mxCell>
        <mxCell id="apyEuko5q-zg2WOOMlP8-105" value="" style="endArrow=classic;html=1;rounded=0;exitX=0.5;exitY=1;exitDx=0;exitDy=0;entryX=0.5;entryY=0;entryDx=0;entryDy=0;" edge="1" parent="1">
          <mxGeometry width="50" height="50" relative="1" as="geometry">
            <mxPoint x="1179.66" y="1640" as="sourcePoint" />
            <mxPoint x="1179.66" y="1680" as="targetPoint" />
          </mxGeometry>
        </mxCell>
        <mxCell id="apyEuko5q-zg2WOOMlP8-106" value="" style="endArrow=classic;html=1;rounded=0;exitX=0.5;exitY=1;exitDx=0;exitDy=0;entryX=0.5;entryY=0;entryDx=0;entryDy=0;" edge="1" parent="1" target="apyEuko5q-zg2WOOMlP8-103">
          <mxGeometry width="50" height="50" relative="1" as="geometry">
            <mxPoint x="1180" y="1640" as="sourcePoint" />
            <mxPoint x="1210" y="1840" as="targetPoint" />
          </mxGeometry>
        </mxCell>
        <mxCell id="apyEuko5q-zg2WOOMlP8-107" value="" style="endArrow=classic;html=1;rounded=0;exitX=0.5;exitY=1;exitDx=0;exitDy=0;entryX=0.5;entryY=0;entryDx=0;entryDy=0;" edge="1" parent="1" target="apyEuko5q-zg2WOOMlP8-104">
          <mxGeometry width="50" height="50" relative="1" as="geometry">
            <mxPoint x="1180" y="1640" as="sourcePoint" />
            <mxPoint x="1180" y="1860" as="targetPoint" />
          </mxGeometry>
        </mxCell>
        <mxCell id="apyEuko5q-zg2WOOMlP8-108" value="A5" style="text;html=1;align=center;verticalAlign=middle;whiteSpace=wrap;rounded=0;" vertex="1" parent="1">
          <mxGeometry x="1000" y="1680" width="40" height="40" as="geometry" />
        </mxCell>
        <mxCell id="apyEuko5q-zg2WOOMlP8-109" value="A6" style="text;html=1;align=center;verticalAlign=middle;whiteSpace=wrap;rounded=0;" vertex="1" parent="1">
          <mxGeometry x="1320" y="1680" width="40" height="40" as="geometry" />
        </mxCell>
        <mxCell id="apyEuko5q-zg2WOOMlP8-110" value="" style="endArrow=classic;html=1;rounded=0;entryX=0.5;entryY=0;entryDx=0;entryDy=0;" edge="1" parent="1" target="apyEuko5q-zg2WOOMlP8-108">
          <mxGeometry width="50" height="50" relative="1" as="geometry">
            <mxPoint x="1180" y="1640" as="sourcePoint" />
            <mxPoint x="1180" y="1840" as="targetPoint" />
          </mxGeometry>
        </mxCell>
        <mxCell id="apyEuko5q-zg2WOOMlP8-111" value="" style="endArrow=classic;html=1;rounded=0;exitX=0.5;exitY=1;exitDx=0;exitDy=0;entryX=0.5;entryY=0;entryDx=0;entryDy=0;" edge="1" parent="1" source="apyEuko5q-zg2WOOMlP8-96" target="apyEuko5q-zg2WOOMlP8-109">
          <mxGeometry width="50" height="50" relative="1" as="geometry">
            <mxPoint x="1160" y="1760" as="sourcePoint" />
            <mxPoint x="1160" y="1800" as="targetPoint" />
          </mxGeometry>
        </mxCell>
        <mxCell id="apyEuko5q-zg2WOOMlP8-112" value="a" style="text;html=1;align=center;verticalAlign=middle;whiteSpace=wrap;rounded=0;" vertex="1" parent="1">
          <mxGeometry x="1000" y="1760" width="40" height="40" as="geometry" />
        </mxCell>
        <mxCell id="apyEuko5q-zg2WOOMlP8-114" value="A5" style="text;html=1;align=center;verticalAlign=middle;whiteSpace=wrap;rounded=0;" vertex="1" parent="1">
          <mxGeometry x="1160" y="1760" width="40" height="40" as="geometry" />
        </mxCell>
        <mxCell id="apyEuko5q-zg2WOOMlP8-115" value="" style="endArrow=classic;html=1;rounded=0;exitX=0.5;exitY=1;exitDx=0;exitDy=0;entryX=0.5;entryY=0;entryDx=0;entryDy=0;" edge="1" parent="1" source="apyEuko5q-zg2WOOMlP8-102" target="apyEuko5q-zg2WOOMlP8-114">
          <mxGeometry width="50" height="50" relative="1" as="geometry">
            <mxPoint x="1240" y="1760" as="sourcePoint" />
            <mxPoint x="1240" y="1800" as="targetPoint" />
          </mxGeometry>
        </mxCell>
        <mxCell id="apyEuko5q-zg2WOOMlP8-116" value="" style="endArrow=classic;html=1;rounded=0;exitX=0.5;exitY=1;exitDx=0;exitDy=0;entryX=0.5;entryY=0;entryDx=0;entryDy=0;" edge="1" parent="1" source="apyEuko5q-zg2WOOMlP8-108" target="apyEuko5q-zg2WOOMlP8-112">
          <mxGeometry width="50" height="50" relative="1" as="geometry">
            <mxPoint x="1030" y="1870" as="sourcePoint" />
            <mxPoint x="1030" y="1910" as="targetPoint" />
          </mxGeometry>
        </mxCell>
        <mxCell id="apyEuko5q-zg2WOOMlP8-117" value="" style="endArrow=classic;html=1;rounded=0;exitX=0.5;exitY=1;exitDx=0;exitDy=0;entryX=0.5;entryY=0;entryDx=0;entryDy=0;" edge="1" parent="1" source="apyEuko5q-zg2WOOMlP8-109">
          <mxGeometry width="50" height="50" relative="1" as="geometry">
            <mxPoint x="1080" y="1860" as="sourcePoint" />
            <mxPoint x="1340" y="1760" as="targetPoint" />
          </mxGeometry>
        </mxCell>
        <mxCell id="apyEuko5q-zg2WOOMlP8-118" value="" style="endArrow=classic;html=1;rounded=0;exitX=0.5;exitY=1;exitDx=0;exitDy=0;entryX=0.5;entryY=0;entryDx=0;entryDy=0;" edge="1" parent="1">
          <mxGeometry width="50" height="50" relative="1" as="geometry">
            <mxPoint x="1179.66" y="1800" as="sourcePoint" />
            <mxPoint x="1179.66" y="1840" as="targetPoint" />
          </mxGeometry>
        </mxCell>
        <mxCell id="apyEuko5q-zg2WOOMlP8-119" value="&lt;span data-huuid=&quot;2484743575016273961&quot;&gt;a&lt;/span&gt;" style="text;html=1;align=center;verticalAlign=middle;whiteSpace=wrap;rounded=0;" vertex="1" parent="1">
          <mxGeometry x="1160" y="1840" width="40" height="40" as="geometry" />
        </mxCell>
        <mxCell id="apyEuko5q-zg2WOOMlP8-120" value="&lt;span data-huuid=&quot;2484743575016273961&quot;&gt;ε&lt;/span&gt;" style="text;html=1;align=center;verticalAlign=middle;whiteSpace=wrap;rounded=0;" vertex="1" parent="1">
          <mxGeometry x="1320" y="1760" width="40" height="40" as="geometry" />
        </mxCell>
        <mxCell id="apyEuko5q-zg2WOOMlP8-121" value="S2" style="text;html=1;align=center;verticalAlign=middle;whiteSpace=wrap;rounded=0;" vertex="1" parent="1">
          <mxGeometry x="1160" y="2040" width="40" height="40" as="geometry" />
        </mxCell>
        <mxCell id="apyEuko5q-zg2WOOMlP8-122" value="S2" style="text;html=1;align=center;verticalAlign=middle;whiteSpace=wrap;rounded=0;" vertex="1" parent="1">
          <mxGeometry x="1160" y="2120" width="40" height="40" as="geometry" />
        </mxCell>
        <mxCell id="apyEuko5q-zg2WOOMlP8-123" value="b" style="text;html=1;align=center;verticalAlign=middle;whiteSpace=wrap;rounded=0;" vertex="1" parent="1">
          <mxGeometry x="1080" y="2120" width="40" height="40" as="geometry" />
        </mxCell>
        <mxCell id="apyEuko5q-zg2WOOMlP8-124" value="b" style="text;html=1;align=center;verticalAlign=middle;whiteSpace=wrap;rounded=0;" vertex="1" parent="1">
          <mxGeometry x="1240" y="2120" width="40" height="40" as="geometry" />
        </mxCell>
        <mxCell id="apyEuko5q-zg2WOOMlP8-125" value="" style="endArrow=classic;html=1;rounded=0;exitX=0.5;exitY=1;exitDx=0;exitDy=0;entryX=0.5;entryY=0;entryDx=0;entryDy=0;" edge="1" parent="1">
          <mxGeometry width="50" height="50" relative="1" as="geometry">
            <mxPoint x="1179.66" y="2080" as="sourcePoint" />
            <mxPoint x="1179.66" y="2120" as="targetPoint" />
          </mxGeometry>
        </mxCell>
        <mxCell id="apyEuko5q-zg2WOOMlP8-126" value="" style="endArrow=classic;html=1;rounded=0;exitX=0.5;exitY=1;exitDx=0;exitDy=0;entryX=0.5;entryY=0;entryDx=0;entryDy=0;" edge="1" parent="1" source="apyEuko5q-zg2WOOMlP8-121" target="apyEuko5q-zg2WOOMlP8-123">
          <mxGeometry width="50" height="50" relative="1" as="geometry">
            <mxPoint x="1210" y="2240" as="sourcePoint" />
            <mxPoint x="1210" y="2280" as="targetPoint" />
          </mxGeometry>
        </mxCell>
        <mxCell id="apyEuko5q-zg2WOOMlP8-127" value="" style="endArrow=classic;html=1;rounded=0;exitX=0.5;exitY=1;exitDx=0;exitDy=0;entryX=0.5;entryY=0;entryDx=0;entryDy=0;" edge="1" parent="1" source="apyEuko5q-zg2WOOMlP8-121" target="apyEuko5q-zg2WOOMlP8-124">
          <mxGeometry width="50" height="50" relative="1" as="geometry">
            <mxPoint x="1180" y="2260" as="sourcePoint" />
            <mxPoint x="1180" y="2300" as="targetPoint" />
          </mxGeometry>
        </mxCell>
        <mxCell id="apyEuko5q-zg2WOOMlP8-128" value="S2" style="text;html=1;align=center;verticalAlign=middle;whiteSpace=wrap;rounded=0;" vertex="1" parent="1">
          <mxGeometry x="1160" y="2200" width="40" height="40" as="geometry" />
        </mxCell>
        <mxCell id="apyEuko5q-zg2WOOMlP8-129" value="b" style="text;html=1;align=center;verticalAlign=middle;whiteSpace=wrap;rounded=0;" vertex="1" parent="1">
          <mxGeometry x="1080" y="2200" width="40" height="40" as="geometry" />
        </mxCell>
        <mxCell id="apyEuko5q-zg2WOOMlP8-130" value="b" style="text;html=1;align=center;verticalAlign=middle;whiteSpace=wrap;rounded=0;" vertex="1" parent="1">
          <mxGeometry x="1240" y="2200" width="40" height="40" as="geometry" />
        </mxCell>
        <mxCell id="apyEuko5q-zg2WOOMlP8-131" value="" style="endArrow=classic;html=1;rounded=0;exitX=0.5;exitY=1;exitDx=0;exitDy=0;entryX=0.5;entryY=0;entryDx=0;entryDy=0;" edge="1" parent="1">
          <mxGeometry width="50" height="50" relative="1" as="geometry">
            <mxPoint x="1179.66" y="2160" as="sourcePoint" />
            <mxPoint x="1179.66" y="2200" as="targetPoint" />
          </mxGeometry>
        </mxCell>
        <mxCell id="apyEuko5q-zg2WOOMlP8-132" value="" style="endArrow=classic;html=1;rounded=0;exitX=0.5;exitY=1;exitDx=0;exitDy=0;entryX=0.5;entryY=0;entryDx=0;entryDy=0;" edge="1" parent="1" target="apyEuko5q-zg2WOOMlP8-129">
          <mxGeometry width="50" height="50" relative="1" as="geometry">
            <mxPoint x="1180" y="2160" as="sourcePoint" />
            <mxPoint x="1210" y="2360" as="targetPoint" />
          </mxGeometry>
        </mxCell>
        <mxCell id="apyEuko5q-zg2WOOMlP8-133" value="" style="endArrow=classic;html=1;rounded=0;exitX=0.5;exitY=1;exitDx=0;exitDy=0;entryX=0.5;entryY=0;entryDx=0;entryDy=0;" edge="1" parent="1" target="apyEuko5q-zg2WOOMlP8-130">
          <mxGeometry width="50" height="50" relative="1" as="geometry">
            <mxPoint x="1180" y="2160" as="sourcePoint" />
            <mxPoint x="1180" y="2380" as="targetPoint" />
          </mxGeometry>
        </mxCell>
        <mxCell id="apyEuko5q-zg2WOOMlP8-134" value="S2" style="text;html=1;align=center;verticalAlign=middle;whiteSpace=wrap;rounded=0;" vertex="1" parent="1">
          <mxGeometry x="1160" y="2280" width="40" height="40" as="geometry" />
        </mxCell>
        <mxCell id="apyEuko5q-zg2WOOMlP8-135" value="b" style="text;html=1;align=center;verticalAlign=middle;whiteSpace=wrap;rounded=0;" vertex="1" parent="1">
          <mxGeometry x="1080" y="2280" width="40" height="40" as="geometry" />
        </mxCell>
        <mxCell id="apyEuko5q-zg2WOOMlP8-136" value="b" style="text;html=1;align=center;verticalAlign=middle;whiteSpace=wrap;rounded=0;" vertex="1" parent="1">
          <mxGeometry x="1240" y="2280" width="40" height="40" as="geometry" />
        </mxCell>
        <mxCell id="apyEuko5q-zg2WOOMlP8-137" value="" style="endArrow=classic;html=1;rounded=0;exitX=0.5;exitY=1;exitDx=0;exitDy=0;entryX=0.5;entryY=0;entryDx=0;entryDy=0;" edge="1" parent="1">
          <mxGeometry width="50" height="50" relative="1" as="geometry">
            <mxPoint x="1179.66" y="2240" as="sourcePoint" />
            <mxPoint x="1179.66" y="2280" as="targetPoint" />
          </mxGeometry>
        </mxCell>
        <mxCell id="apyEuko5q-zg2WOOMlP8-138" value="" style="endArrow=classic;html=1;rounded=0;exitX=0.5;exitY=1;exitDx=0;exitDy=0;entryX=0.5;entryY=0;entryDx=0;entryDy=0;" edge="1" parent="1" target="apyEuko5q-zg2WOOMlP8-135">
          <mxGeometry width="50" height="50" relative="1" as="geometry">
            <mxPoint x="1180" y="2240" as="sourcePoint" />
            <mxPoint x="1210" y="2440" as="targetPoint" />
          </mxGeometry>
        </mxCell>
        <mxCell id="apyEuko5q-zg2WOOMlP8-139" value="" style="endArrow=classic;html=1;rounded=0;exitX=0.5;exitY=1;exitDx=0;exitDy=0;entryX=0.5;entryY=0;entryDx=0;entryDy=0;" edge="1" parent="1" target="apyEuko5q-zg2WOOMlP8-136">
          <mxGeometry width="50" height="50" relative="1" as="geometry">
            <mxPoint x="1180" y="2240" as="sourcePoint" />
            <mxPoint x="1180" y="2460" as="targetPoint" />
          </mxGeometry>
        </mxCell>
        <mxCell id="apyEuko5q-zg2WOOMlP8-140" value="S1" style="text;html=1;align=center;verticalAlign=middle;whiteSpace=wrap;rounded=0;" vertex="1" parent="1">
          <mxGeometry x="1160" y="2360" width="40" height="40" as="geometry" />
        </mxCell>
        <mxCell id="apyEuko5q-zg2WOOMlP8-141" value="b" style="text;html=1;align=center;verticalAlign=middle;whiteSpace=wrap;rounded=0;" vertex="1" parent="1">
          <mxGeometry x="1080" y="2360" width="40" height="40" as="geometry" />
        </mxCell>
        <mxCell id="apyEuko5q-zg2WOOMlP8-142" value="b" style="text;html=1;align=center;verticalAlign=middle;whiteSpace=wrap;rounded=0;" vertex="1" parent="1">
          <mxGeometry x="1240" y="2360" width="40" height="40" as="geometry" />
        </mxCell>
        <mxCell id="apyEuko5q-zg2WOOMlP8-143" value="" style="endArrow=classic;html=1;rounded=0;exitX=0.5;exitY=1;exitDx=0;exitDy=0;entryX=0.5;entryY=0;entryDx=0;entryDy=0;" edge="1" parent="1">
          <mxGeometry width="50" height="50" relative="1" as="geometry">
            <mxPoint x="1179.66" y="2320" as="sourcePoint" />
            <mxPoint x="1179.66" y="2360" as="targetPoint" />
          </mxGeometry>
        </mxCell>
        <mxCell id="apyEuko5q-zg2WOOMlP8-144" value="" style="endArrow=classic;html=1;rounded=0;exitX=0.5;exitY=1;exitDx=0;exitDy=0;entryX=0.5;entryY=0;entryDx=0;entryDy=0;" edge="1" parent="1" target="apyEuko5q-zg2WOOMlP8-141">
          <mxGeometry width="50" height="50" relative="1" as="geometry">
            <mxPoint x="1180" y="2320" as="sourcePoint" />
            <mxPoint x="1210" y="2520" as="targetPoint" />
          </mxGeometry>
        </mxCell>
        <mxCell id="apyEuko5q-zg2WOOMlP8-145" value="" style="endArrow=classic;html=1;rounded=0;exitX=0.5;exitY=1;exitDx=0;exitDy=0;entryX=0.5;entryY=0;entryDx=0;entryDy=0;" edge="1" parent="1" target="apyEuko5q-zg2WOOMlP8-142">
          <mxGeometry width="50" height="50" relative="1" as="geometry">
            <mxPoint x="1180" y="2320" as="sourcePoint" />
            <mxPoint x="1180" y="2540" as="targetPoint" />
          </mxGeometry>
        </mxCell>
        <mxCell id="apyEuko5q-zg2WOOMlP8-146" value="B8" style="text;html=1;align=center;verticalAlign=middle;whiteSpace=wrap;rounded=0;" vertex="1" parent="1">
          <mxGeometry x="1160" y="2440" width="40" height="40" as="geometry" />
        </mxCell>
        <mxCell id="apyEuko5q-zg2WOOMlP8-147" value="a" style="text;html=1;align=center;verticalAlign=middle;whiteSpace=wrap;rounded=0;" vertex="1" parent="1">
          <mxGeometry x="1080" y="2440" width="40" height="40" as="geometry" />
        </mxCell>
        <mxCell id="apyEuko5q-zg2WOOMlP8-148" value="a" style="text;html=1;align=center;verticalAlign=middle;whiteSpace=wrap;rounded=0;" vertex="1" parent="1">
          <mxGeometry x="1240" y="2440" width="40" height="40" as="geometry" />
        </mxCell>
        <mxCell id="apyEuko5q-zg2WOOMlP8-149" value="" style="endArrow=classic;html=1;rounded=0;exitX=0.5;exitY=1;exitDx=0;exitDy=0;entryX=0.5;entryY=0;entryDx=0;entryDy=0;" edge="1" parent="1">
          <mxGeometry width="50" height="50" relative="1" as="geometry">
            <mxPoint x="1179.66" y="2400" as="sourcePoint" />
            <mxPoint x="1179.66" y="2440" as="targetPoint" />
          </mxGeometry>
        </mxCell>
        <mxCell id="apyEuko5q-zg2WOOMlP8-150" value="" style="endArrow=classic;html=1;rounded=0;exitX=0.5;exitY=1;exitDx=0;exitDy=0;entryX=0.5;entryY=0;entryDx=0;entryDy=0;" edge="1" parent="1" target="apyEuko5q-zg2WOOMlP8-147">
          <mxGeometry width="50" height="50" relative="1" as="geometry">
            <mxPoint x="1180" y="2400" as="sourcePoint" />
            <mxPoint x="1210" y="2600" as="targetPoint" />
          </mxGeometry>
        </mxCell>
        <mxCell id="apyEuko5q-zg2WOOMlP8-151" value="" style="endArrow=classic;html=1;rounded=0;exitX=0.5;exitY=1;exitDx=0;exitDy=0;entryX=0.5;entryY=0;entryDx=0;entryDy=0;" edge="1" parent="1" target="apyEuko5q-zg2WOOMlP8-148">
          <mxGeometry width="50" height="50" relative="1" as="geometry">
            <mxPoint x="1180" y="2400" as="sourcePoint" />
            <mxPoint x="1180" y="2620" as="targetPoint" />
          </mxGeometry>
        </mxCell>
        <mxCell id="apyEuko5q-zg2WOOMlP8-152" value="A6" style="text;html=1;align=center;verticalAlign=middle;whiteSpace=wrap;rounded=0;" vertex="1" parent="1">
          <mxGeometry x="1000" y="2440" width="40" height="40" as="geometry" />
        </mxCell>
        <mxCell id="apyEuko5q-zg2WOOMlP8-153" value="A5" style="text;html=1;align=center;verticalAlign=middle;whiteSpace=wrap;rounded=0;" vertex="1" parent="1">
          <mxGeometry x="1320" y="2440" width="40" height="40" as="geometry" />
        </mxCell>
        <mxCell id="apyEuko5q-zg2WOOMlP8-154" value="" style="endArrow=classic;html=1;rounded=0;entryX=0.5;entryY=0;entryDx=0;entryDy=0;" edge="1" parent="1" target="apyEuko5q-zg2WOOMlP8-152">
          <mxGeometry width="50" height="50" relative="1" as="geometry">
            <mxPoint x="1180" y="2400" as="sourcePoint" />
            <mxPoint x="1180" y="2600" as="targetPoint" />
          </mxGeometry>
        </mxCell>
        <mxCell id="apyEuko5q-zg2WOOMlP8-155" value="" style="endArrow=classic;html=1;rounded=0;exitX=0.5;exitY=1;exitDx=0;exitDy=0;entryX=0.5;entryY=0;entryDx=0;entryDy=0;" edge="1" parent="1" source="apyEuko5q-zg2WOOMlP8-140" target="apyEuko5q-zg2WOOMlP8-153">
          <mxGeometry width="50" height="50" relative="1" as="geometry">
            <mxPoint x="1160" y="2520" as="sourcePoint" />
            <mxPoint x="1160" y="2560" as="targetPoint" />
          </mxGeometry>
        </mxCell>
        <mxCell id="apyEuko5q-zg2WOOMlP8-156" value="a" style="text;html=1;align=center;verticalAlign=middle;whiteSpace=wrap;rounded=0;" vertex="1" parent="1">
          <mxGeometry x="1320" y="2520" width="40" height="40" as="geometry" />
        </mxCell>
        <mxCell id="apyEuko5q-zg2WOOMlP8-157" value="A5" style="text;html=1;align=center;verticalAlign=middle;whiteSpace=wrap;rounded=0;" vertex="1" parent="1">
          <mxGeometry x="1160" y="2520" width="40" height="40" as="geometry" />
        </mxCell>
        <mxCell id="apyEuko5q-zg2WOOMlP8-158" value="" style="endArrow=classic;html=1;rounded=0;exitX=0.5;exitY=1;exitDx=0;exitDy=0;entryX=0.5;entryY=0;entryDx=0;entryDy=0;" edge="1" parent="1" source="apyEuko5q-zg2WOOMlP8-146" target="apyEuko5q-zg2WOOMlP8-157">
          <mxGeometry width="50" height="50" relative="1" as="geometry">
            <mxPoint x="1240" y="2520" as="sourcePoint" />
            <mxPoint x="1240" y="2560" as="targetPoint" />
          </mxGeometry>
        </mxCell>
        <mxCell id="apyEuko5q-zg2WOOMlP8-161" value="" style="endArrow=classic;html=1;rounded=0;exitX=0.5;exitY=1;exitDx=0;exitDy=0;entryX=0.5;entryY=0;entryDx=0;entryDy=0;" edge="1" parent="1">
          <mxGeometry width="50" height="50" relative="1" as="geometry">
            <mxPoint x="1179.66" y="2560" as="sourcePoint" />
            <mxPoint x="1179.66" y="2600" as="targetPoint" />
          </mxGeometry>
        </mxCell>
        <mxCell id="apyEuko5q-zg2WOOMlP8-162" value="&lt;span data-huuid=&quot;2484743575016273961&quot;&gt;a&lt;/span&gt;" style="text;html=1;align=center;verticalAlign=middle;whiteSpace=wrap;rounded=0;" vertex="1" parent="1">
          <mxGeometry x="1160" y="2600" width="40" height="40" as="geometry" />
        </mxCell>
        <mxCell id="apyEuko5q-zg2WOOMlP8-164" value="&lt;span data-huuid=&quot;2484743575016273961&quot;&gt;ε&lt;/span&gt;" style="text;html=1;align=center;verticalAlign=middle;whiteSpace=wrap;rounded=0;" vertex="1" parent="1">
          <mxGeometry x="1000" y="2520" width="40" height="40" as="geometry" />
        </mxCell>
        <mxCell id="apyEuko5q-zg2WOOMlP8-165" value="" style="endArrow=classic;html=1;rounded=0;exitX=0.5;exitY=1;exitDx=0;exitDy=0;entryX=0.5;entryY=0;entryDx=0;entryDy=0;" edge="1" parent="1">
          <mxGeometry width="50" height="50" relative="1" as="geometry">
            <mxPoint x="1019.66" y="2480" as="sourcePoint" />
            <mxPoint x="1019.66" y="2520" as="targetPoint" />
          </mxGeometry>
        </mxCell>
        <mxCell id="apyEuko5q-zg2WOOMlP8-166" value="" style="endArrow=classic;html=1;rounded=0;exitX=0.5;exitY=1;exitDx=0;exitDy=0;entryX=0.5;entryY=0;entryDx=0;entryDy=0;" edge="1" parent="1">
          <mxGeometry width="50" height="50" relative="1" as="geometry">
            <mxPoint x="1339.66" y="2480" as="sourcePoint" />
            <mxPoint x="1339.66" y="2520" as="targetPoint" />
          </mxGeometry>
        </mxCell>
      </root>
    </mxGraphModel>
  </diagram>
</mxfile>
